<?xml version="1.0" encoding="UTF-8"?>
<svg width="512px" height="512px" viewBox="0 0 512 512" version="1.1" xmlns="http://www.w3.org/2000/svg" xmlns:xlink="http://www.w3.org/1999/xlink">
    <title>joystick</title>
    <g id="reachy" stroke="none" stroke-width="1" fill="none" fill-rule="evenodd">
        <g id="joystick">
            <g id="Group" transform="translate(91.200022, 80.954940)">
                <path d="M0.819883403,274.04506 C0.755216736,284.378394 0.757550069,294.711727 0.826883403,305.04506" id="Path" stroke="#1C1C1C"></path>
                <path d="M2.01112592,303.351082 C1.82895903,311.560154 1.76466483,316.780997 1.81824333,319.013612 C2.11828292,331.335118 8.0092388,339.710057 19.491111,344.138427 C24.522132,346.081434 29.3897385,347.050305 34.0939307,347.04506 C107.367885,346.955524 194.004317,346.92393 294.003226,346.950258 C302.321288,346.958157 309.474017,346.523745 316.232945,343.127432 C325.759202,338.346266 330.594661,330.566341 330.739323,319.787655 C330.84648,311.883988 330.811654,303.96979 330.634845,296.04506" id="Path" stroke="#676767"></path>
                <line x1="329.819978" y1="296.04506" x2="329.779978" y2="275.04506" id="Path" stroke="#7B7B7B"></line>
                <path d="M330.62189,277.04506 C330.90322,264.136832 331.594486,254.596317 325.60619,245.16029 C301.28326,206.821405 287.744621,185.412178 284.990272,180.93261 C281.582169,175.386734 278.851934,171.702879 276.79957,169.881045 C272.292942,165.883727 267.140596,163.092035 261.342533,161.505968 C258.309534,160.675426 253.205416,160.297663 246.030179,160.37268 C226.256746,160.581655 207.075444,160.619164 188.486273,160.485205 C188.152033,160.480807 187.883396,160.208604 187.883425,159.874355 L187.883425,125.835534 C187.883045,125.403056 188.11311,125.004301 188.486273,124.790658 C191.154883,123.231383 193.215285,121.998966 194.667481,121.093407 C207.287111,113.240768 216.394143,101.530127 221.128514,87.7699238 C226.165649,73.10952 226.20048,58.8241996 221.233008,44.9139627 C214.432876,25.8490078 200.310143,11.5985166 181.195825,4.75860229 C146.455671,-7.67541344 108.741464,12.3218917 97.8339242,46.7465132 C90.6640452,69.364044 97.070316,94.433013 113.106088,111.440367 C118.620143,117.291669 124.536097,120.820132 131.6899,125.007671 C131.903758,125.131256 132.035492,125.361011 132.035533,125.610484 L132.035533,159.930618 C132.035533,160.321249 131.718845,160.637918 131.328191,160.637918 C107.241041,160.632559 92.8182241,160.600409 88.0597393,160.541468 C79.7752603,160.428943 74.0870491,160.817422 70.9951058,161.706905 C65.1648903,163.378706 60.1438315,166.06859 55.9319295,169.776558 C53.9760208,171.501941 50.527727,176.292293 45.587048,184.147611 C30.566741,208.018993 18.3543686,227.207189 8.9499309,241.712201 C6.29739719,245.805969 4.57191062,248.959349 3.77347118,251.172341 C1.09682352,258.558806 1.92473556,266.55612 1.9086596,274.320347" id="Path" stroke="#676767"></path>
                <path d="M328.783926,275.78471 C328.104388,275.822201 327.577345,275.626709 327.202796,275.198233 C327.036795,275.016214 326.940166,274.780095 326.929911,274.531417 C326.678428,270.059195 326.560713,266.526943 326.576765,263.934662 C326.632948,256.077477 325.549432,250.60637 321.881533,244.829974 C306.316369,220.326485 296.088521,204.178284 291.197988,196.385371 C283.835436,184.650476 279.597687,177.904652 278.484743,176.147899 C275.434849,171.32754 272.168251,167.479287 266.86304,165.149448 C261.822688,162.940117 256.790362,161.421704 251.164109,161.397602 C221.628288,161.236923 206.643674,161.140516 189.564265,161.550246 C188.001862,161.587738 186.458188,161.547568 184.93324,161.429738 C184.64737,161.408652 184.42652,161.166531 184.4276,160.875396 L184.4276,123.654194 C184.427073,122.987183 184.798151,122.374301 185.390725,122.063476 L190.76817,119.275702 C190.912358,119.195532 191.051988,119.101458 191.185524,118.994515 C192.255663,118.10007 193.381983,117.368983 194.564486,116.801251 C195.207556,116.487427 195.793171,116.072208 196.298111,115.57206 C199.005561,112.915507 201.453503,110.532107 203.641936,108.421862 C206.402893,105.765308 208.602027,103.237298 210.239339,100.837831 C222.053668,83.492574 224.605948,60.6842442 216.684248,41.3385386 C214.832909,36.8020457 212.620397,32.6029778 210.046714,28.741335 C204.685321,20.6913363 197.312067,14.2266999 187.926953,9.34742584 C184.438301,7.53711341 182.330129,6.50073633 181.602434,6.23829459 C151.199801,-4.80032645 117.99608,6.30256603 102.826868,35.4496673 C97.1872384,46.2794061 94.8543365,57.8241648 95.8281625,70.0839433 C96.9304051,83.9933557 101.842341,96.041574 110.563969,106.228598 C115.28328,111.745231 121.543589,116.755726 129.344899,121.260083 C130.324075,121.830492 132.266377,122.159883 132.362689,123.798805 C132.86833,132.563824 131.897179,139.963074 132.065726,148.535278 C132.071076,148.701313 132.0577,152.763804 132.025596,160.722752 C132.027038,160.863623 131.924113,160.983821 131.784814,161.003939 C131.022341,161.10838 130.171581,160.778989 129.072013,160.795057 C107.444515,161.046787 90.6888226,161.301195 78.8049352,161.55828 C73.3525798,161.676111 68.2239413,162.808896 63.4190196,164.956633 C61.1476508,165.968908 59.0368027,167.46322 56.6610953,169.311024 C55.0184328,170.591097 53.2553797,172.639749 51.3719361,175.456981 C47.8137257,180.775443 42.8563094,188.544254 36.499687,198.763414 C33.4123376,203.723028 31.1891249,207.249923 29.8300491,209.344101 C25.415728,216.124739 21.860193,222.198391 16.7797107,230.071643 C13.2643059,235.534716 9.55627622,240.91745 6.32178276,246.653676 C3.58490368,251.514205 2.79835193,255.515102 2.80637796,261.3156 C2.80637796,265.71016 2.00377413,270.466247 2.04390432,275.439251 C2.11346332,285.09068 2.04657967,292.562235 1.84325336,297.853918 C1.56234202,305.140693 2.74216966,311.840992 2.7100655,318.420781 C2.69401343,322.614493 3.11404277,325.92715 3.97015353,328.358753 C8.41657878,340.972025 21.1699537,345.78435 33.4578185,345.768282 C42.7252174,345.746858 80.4957539,345.821841 146.769428,345.993232 C195.123634,346.116419 244.75933,346.020012 295.676518,345.70401 C308.654622,345.623671 321.512335,341.831656 325.613641,328.109702 C326.421595,325.404945 326.788118,321.160351 326.713208,315.375921 C326.606194,307.106328 326.675753,299.814197 326.921885,293.499527 C326.986093,291.823114 327.052977,290.896534 327.122536,290.719787 C327.172381,290.587666 327.311581,290.514514 327.443577,290.551075 L327.563968,290.575177 C327.674236,290.605628 327.745679,290.714601 327.732515,290.832262 C327.416824,293.360273 327.486383,295.98469 327.941192,298.705515 C327.952085,298.750967 327.991823,298.783639 328.038481,298.785508 C328.08514,298.787376 328.127357,298.757985 328.141843,298.713548 L328.799978,296.062351" id="Path" stroke="#E1E1E1"></path>
                <path d="M0.782069822,305.04506 C0.841403155,294.711727 0.839069822,284.378394 0.775069822,274.04506" id="Path" stroke="#828383"></path>
                <path d="M171.261091,175.150368 C171.145799,175.150368 171.052337,175.056578 171.052337,174.940881 L171.052337,115.390124 C171.053523,115.23256 171.158199,115.09469 171.309265,115.051721 C188.242425,110.241574 201.080795,97.6642861 206.050746,80.808626 C211.984176,60.6898002 205.681412,38.9756491 189.390572,26.1002452 C156.487732,0.0916070143 107.591125,22.7403932 107.494777,65.217946 C107.438574,88.6885665 121.722164,108.589848 144.323798,114.946978 C144.505194,115.000692 144.629495,115.168103 144.6289,115.357895 L144.6289,174.642765 C144.628851,174.862146 144.450392,175.041233 144.22745,175.045625 C125.610876,175.099339 103.844259,175.096654 78.9275968,175.037568 C71.5971203,175.021453 64.9972827,177.229126 61.038986,183.642656 C54.3963271,194.417817 39.807635,217.654778 17.2729098,253.353541 C15.6510519,255.926473 14.8374466,259.154724 14.8320939,263.038294 C14.8106833,281.483908 14.7999779,301.213303 14.7999779,322.226478 C14.7999779,331.476142 24.1939073,335.02131 32.1827618,335.013252 C55.0332944,335.013252 140.780333,335.018624 289.423876,335.029367 C297.203977,335.029367 308.49275,335.7384 312.724033,327.624801 C313.446643,326.244334 313.805272,323.687516 313.799978,319.954348 C313.794566,299.40849 313.708924,281.236821 313.542991,265.43934 C313.494817,260.371361 313.583136,257.583571 311.294871,253.861145 C299.155024,234.096836 286.413002,214.139154 266.476996,182.240703 C266.284882,181.94079 266.061471,181.662571 265.810589,181.410812 C261.694389,177.237183 256.641472,175.128882 250.651838,175.085911 C231.607051,174.940881 205.143469,174.962367 171.261091,175.150368" id="Path" stroke="#7B7B7B"></path>
                <path d="M112.032428,62.0450604 C111.367982,68.6185109 112.131981,75.2582984 114.273234,81.5195168 C118.283769,93.2496271 126.870083,102.908183 138.121807,108.346252 C149.820717,113.992452 163.366042,114.575964 175.51925,109.957277 C185.860044,106.02572 194.461726,98.5979498 199.799978,88.990253" id="Path" stroke="#521E1B"></path>
                <path d="M199.036607,89.0450604 C202.085506,83.346259 203.972044,77.0653419 204.58087,70.5863592 C205.744592,58.2907613 202.242112,46.0082052 194.804831,36.3035836 C187.638448,26.9545629 177.342551,20.6827421 165.922165,18.7094968 C153.13968,16.4986935 140.03771,19.8589559 129.761162,27.9837095 C119.573509,36.0413059 113.074192,48.0658984 111.799978,61.2142657" id="Path" stroke="#692623"></path>
                <path d="M199.799978,87.5539298 C188.284692,93.7888436 176.999392,96.9519873 165.944076,97.043361 C144.290739,97.2126712 125.108402,84.7159691 113.932745,66.075727 C113.579746,65.4844852 113.323018,64.8717436 113.162564,64.2375024 C113.099477,63.9832935 112.975572,63.7480928 112.801541,63.5521994 C112.052753,62.6922113 111.723822,61.523165 111.814746,60.0450604" id="Path" stroke="#BB443E"></path>
                <path d="M158.359083,206.04506 C161.348437,206.039728 164.122389,205.429181 166.68094,204.21342 C167.362736,203.890698 167.798965,203.198504 167.799978,202.437768 L167.799978,116.350654 C167.79823,116.263467 167.760603,116.181003 167.696221,116.123256 C167.631839,116.065509 167.546579,116.037751 167.461114,116.046713 C164.450745,116.374649 161.542824,116.894547 158.296038,116.902546 C155.057134,116.902546 152.149212,116.382648 149.130962,116.054712 C149.045438,116.048014 148.961047,116.077898 148.898189,116.13714 C148.83533,116.196381 148.799725,116.279589 148.799978,116.366651 L148.918187,202.453765 C148.919192,203.214505 149.355422,203.906701 150.037225,204.229417 C152.60103,205.439846 155.374982,206.04506 158.359083,206.04506" id="Path" stroke="#1C1C1C"></path>
                <path d="M171.115071,177.636619 L171.115071,185.655966 C171.113761,185.97569 171.356919,186.244614 171.677335,186.277809 C179.399092,187.026174 186.494326,189.16359 192.963038,192.690057 C196.43301,194.571737 200.882927,198.561221 200.96325,202.728375 C201.043574,206.917064 201.07838,210.346621 201.067671,213.017045 C201.056961,215.256755 200.676763,216.993069 199.927078,218.225987 C196.449075,223.959861 187.493014,227.319427 180.962721,228.82154 C164.06803,232.703346 147.446439,232.329164 131.097947,227.698993 C126.091122,226.277638 121.900917,224.097151 118.527334,221.157531 C113.603509,216.861163 114.904748,211.418021 114.744101,206.386748 C114.56739,201.121275 115.724047,197.979758 119.378762,195.128973 C126.294608,189.734285 135.660317,187.198459 144.279019,186.229354 C144.493753,186.201108 144.654879,186.014982 144.656539,185.793256 L144.656539,177.467025 C144.656539,177.261857 144.491114,177.095535 144.287052,177.095535 C125.480664,177.068615 103.771923,177.068615 79.1608301,177.095535 C73.6908058,177.103611 67.4978708,178.718786 64.5259046,183.427024 C57.0022785,195.373941 42.3325462,218.785914 20.5167078,253.662944 C15.0627483,262.384894 23.7296443,266.721641 30.7900721,266.891234 C35.3685065,266.998913 41.786347,267.05006 50.0435937,267.04506 C124.487331,266.985453 204.816096,266.974685 291.029891,267.012372 C296.042072,267.020448 300.965897,267.303104 305.158779,265.227603 C310.117411,262.767152 311.102711,259.02802 308.11468,254.010207 C298.724873,238.254167 282.861,213.655039 264.362518,183.919652 C261.51907,179.340629 255.759881,177.087459 250.651312,177.063231 C241.601541,177.030928 215.26885,177.041695 171.653238,177.095535 C171.356016,177.095535 171.115071,177.337786 171.115071,177.636619" id="Path" stroke="#757571"></path>
                <path d="M159.812326,218.04506 C170.884035,218.037233 181.81278,216.36022 191.367489,211.984387 C196.418857,209.667769 202.359774,204.644531 196.117046,199.26249 C190.303207,194.254852 181.01854,191.922634 173.417661,191.049027 C173.269414,191.03057 173.120407,191.077111 173.010251,191.176277 C172.900095,191.275444 172.839952,191.417189 172.845808,191.563831 C172.983476,194.943857 172.991419,198.768486 172.869635,203.037719 C172.814038,204.886333 171.972144,205.83794 170.494857,206.680347 C167.233177,208.536761 163.669686,209.467568 159.804384,209.472768 C155.939082,209.472768 152.375591,208.547161 149.113911,206.695947 C147.636624,205.85354 146.786787,204.901933 146.73119,203.053319 C146.604112,198.784086 146.606759,194.959457 146.739133,191.579432 C146.744989,191.432789 146.684845,191.291044 146.57469,191.191877 C146.464534,191.092711 146.315527,191.04617 146.16728,191.064628 C138.566401,191.946034 129.289676,194.293852 123.475838,199.30929 C117.241052,204.699131 123.189911,209.71457 128.241279,212.023387 C137.803931,216.39142 148.732676,218.052833 159.812326,218.04506" id="Path" stroke="#1C1C1C"></path>
                <path d="M158.778687,229.04506 C167.191137,229.055544 175.124261,228.130378 182.578058,226.269472 C188.141478,224.879079 192.651995,222.782916 196.109609,219.980984 C197.209449,219.086293 197.974074,217.858601 198.282735,216.491786 L198.775526,214.334826 C198.867968,213.936271 198.693042,213.523983 198.339721,213.307665 C197.9864,213.091347 197.53226,213.118493 197.20829,213.375297 C194.100746,215.791302 190.247283,217.675998 185.647903,219.029385 C177.13851,221.54055 168.184797,222.788203 158.786765,222.772343 C149.383347,222.756483 140.432328,221.482397 131.933706,218.950085 C127.339711,217.580838 123.491634,215.682926 120.389476,213.256347 C120.0666,213.001911 119.615446,212.974755 119.26332,213.18856 C118.911194,213.402365 118.734491,213.810746 118.82224,214.207946 L119.306952,216.372836 C119.613468,217.738585 120.375165,218.966138 121.472,219.862034 C124.918843,222.67454 129.421281,224.786562 134.979315,226.198102 C142.427726,228.080154 150.36085,229.029111 158.778687,229.04506" id="Path" stroke="#1C1C1C"></path>
                <path d="M165.299978,329.980362 C247.777006,329.980362 292.100481,330.001695 298.270403,330.04436 C302.344272,330.076358 305.89144,329.012403 308.911907,326.852494 C310.798355,325.503218 311.744267,323.975282 311.749641,322.268688 C311.835633,303.528145 311.811448,285.23025 311.677085,267.375004 C311.676376,267.255401 311.609754,267.145274 311.504469,267.089666 C311.399184,267.034059 311.272895,267.042299 311.177257,267.111015 C305.582406,270.974852 300.672803,270.830858 292.94159,270.830858 C254.051731,270.830858 211.504527,270.830858 165.299978,270.830858 C119.095429,270.830858 76.5455378,270.828191 37.6503045,270.822858 C29.9271526,270.822858 25.0175498,270.966852 19.4226986,267.103015 C19.3270606,267.034299 19.2007717,267.02606 19.0954869,267.081667 C18.9902021,267.137274 18.92358,267.247401 18.9228704,267.367004 C18.788508,285.222251 18.7643227,303.520145 18.8503147,322.260688 C18.8556892,323.967283 19.8016006,325.495218 21.688049,326.844495 C24.7031417,329.004404 28.2503096,330.068359 32.3295527,330.03636 C38.499475,329.993695 82.8229501,329.975029 165.299978,329.980362" id="Path" stroke="#676767"></path>
                <path d="M190.819023,51.4830926 C192.325994,48.7957608 191.92306,45.3508725 190.77873,42.6954377 C187.947453,36.1193161 183.152547,31.4862603 176.394014,28.7962704 C173.138314,27.496463 169.108982,27.8074599 166.594678,30.3273318 C163.572679,33.3575577 164.59613,38.9475269 167.956593,41.1803248 C173.372015,44.7846987 177.433582,48.0195977 180.141293,50.8850217 C181.312486,52.1183768 182.386974,52.9503598 183.364759,53.3809709 C186.112763,54.5930612 189.27176,54.2501672 190.819023,51.4830926" id="Path" stroke="#DE9B93"></path>
                <path d="M77.7045693,248.044193 C82.8229887,248.076777 87.567742,247.191559 91.9388292,245.388538 C96.3421754,243.57194 101.10037,239.840989 101.729419,234.912551 C102.205239,231.222331 100.213249,228.607407 97.6002743,226.025068 C97.3186267,225.750337 97.0865033,225.424841 96.9147717,225.063819 C93.5517765,218.06625 85.1160621,216.094875 77.9223172,216.045998 C70.7205074,215.997121 62.2605988,217.846303 58.8008269,224.794995 C58.6234074,225.15438 58.3858026,225.477144 58.0991948,225.748098 C55.4539612,228.297852 53.4297123,230.880191 53.8571434,234.578557 C54.4136102,239.515142 59.1234163,243.311262 63.4945035,245.19303 C67.8440847,247.05579 72.5807733,248.006177 77.7045693,248.044193" id="Path" stroke="#757571"></path>
                <path d="M243.657986,248.042667 C248.781122,248.096915 253.531032,247.228946 257.907716,245.438759 C262.313935,243.632298 267.082641,239.913593 267.727061,234.99058 C268.210375,231.304423 266.228785,228.68424 263.626941,226.08847 C263.345568,225.813857 263.113726,225.488731 262.942245,225.128279 C259.599318,218.12214 251.165475,216.120386 243.972141,216.047151 C236.778806,215.973916 228.312743,217.804788 224.832876,224.74583 C224.655686,225.104623 224.418371,225.427019 224.13207,225.697884 C221.473839,228.236694 219.435862,230.81619 219.854735,234.510484 C220.402491,239.449772 225.0987,243.257987 229.464643,245.153957 C233.809105,247.03094 238.54022,247.993844 243.657986,248.042667" id="Path" stroke="#757571"></path>
                <path d="M63.7999779,227.04506 C63.7999779,231.463338 70.9634219,235.04506 79.7999779,235.04506 C88.6365339,235.04506 95.7999779,231.463338 95.7999779,227.04506 C95.7999779,222.626782 88.6365339,219.04506 79.7999779,219.04506 C75.5565141,219.04506 71.4868515,219.887915 68.4862694,221.388206 C65.4856874,222.888497 63.7999779,224.923328 63.7999779,227.04506" id="Path" stroke="#7B7B7B"></path>
                <path d="M78.7695585,245.044838 C81.7855303,245.0562 84.8198601,244.632942 87.8725481,243.775063 C92.6246705,242.445634 102.097444,237.162008 97.6364289,230.318859 C97.5672093,230.214247 97.4509962,230.157825 97.3341223,230.172089 C97.2172485,230.186353 97.1187198,230.268983 97.0778184,230.387035 C94.7804347,236.821129 84.442208,239.062409 78.785294,239.036843 C73.1205122,239.019799 62.798021,236.710343 60.5399761,230.267727 C60.5008564,230.1485 60.4031885,230.063886 60.2861377,230.047815 C60.1690869,230.031743 60.0518215,230.086847 59.9813657,230.19103 C55.488879,237.00009 64.9223142,242.351892 69.6665689,243.715409 C72.7192569,244.590332 75.7535867,245.033475 78.7695585,245.044838" id="Path" stroke="#7B7B7B"></path>
                <path d="M227.799978,227.017133 C227.796283,229.138854 229.478448,231.176619 232.476421,232.682139 C235.474394,234.187659 239.542595,235.03761 243.786061,235.04506 C248.029523,235.05242 252.100652,234.216674 255.103843,232.721629 C258.107035,231.226584 259.796283,229.194706 259.799978,227.072988 C259.803673,224.951267 258.121508,222.913502 255.123535,221.407982 C252.125562,219.902462 248.057361,219.052511 243.813894,219.04506 C239.570433,219.037701 235.499304,219.873447 232.496113,221.368492 C229.492921,222.863537 227.803673,224.895414 227.799978,227.017133" id="Path" stroke="#7B7B7B"></path>
                <path d="M243.797734,245.04506 C246.965267,245.04506 250.152013,244.610051 253.357973,243.740033 C258.339837,242.392357 268.270627,237.061362 263.568735,230.20357 C263.495463,230.103411 263.376483,230.050246 263.257207,230.064366 C263.137931,230.078486 263.036765,230.157712 262.992321,230.271807 C260.587851,236.737238 249.743033,239.014639 243.797734,239.014639 C237.852436,239.014639 227.007618,236.720179 224.611382,230.254748 C224.566938,230.140653 224.465772,230.061427 224.346496,230.047307 C224.22722,230.033187 224.108241,230.086352 224.034968,230.186511 C219.324842,237.035773 229.255632,242.375298 234.237496,243.731503 C237.443456,244.607208 240.630202,245.04506 243.797734,245.04506" id="Path" stroke="#7B7B7B"></path>
            </g>
            <polygon id="Shape" fill-rule="nonzero" points="512 0 512 512 0 512 0 0"></polygon>
            <path d="M420.280756,356.80843 C419.600608,356.845918 419.073092,356.650443 418.698208,356.222004 C418.532058,356.04 418.435343,355.803902 418.425078,355.555245 C418.17337,351.083411 418.055549,347.551465 418.071616,344.959407 C418.127848,337.102903 417.043362,331.63227 413.372173,325.856373 C397.793052,301.355005 387.556032,285.208202 382.661114,277.415963 C375.291959,265.682084 371.050411,258.936844 369.936469,257.180243 C366.883839,252.360302 363.614312,248.512382 358.304344,246.182743 C353.259472,243.973604 348.222633,242.455322 342.591335,242.431222 C313.029028,242.270558 298.030977,242.174159 280.936252,242.583854 C279.372449,242.621342 277.82739,242.581176 276.301075,242.463355 C276.014949,242.442272 275.793901,242.200171 275.794982,241.909062 L275.794982,204.691082 C275.794454,204.024129 276.165865,203.4113 276.75897,203.100501 L282.141238,200.312969 C282.285554,200.232806 282.42531,200.13874 282.558966,200.031805 C283.630064,199.137439 284.757395,198.406414 285.940958,197.838732 C286.584605,197.524934 287.170744,197.109752 287.676137,196.609647 C290.386015,193.953324 292.836152,191.570131 295.026547,189.460067 C297.78998,186.803744 299.991087,184.275953 301.629867,181.876693 C313.45479,164.532938 316.009359,141.726582 308.080555,122.382551 C306.227555,117.846451 304.01306,113.647746 301.437069,109.786438 C296.070868,101.737136 288.691002,95.2730588 279.297472,90.3942071 C275.805693,88.5840514 273.695629,87.547764 272.967283,87.285345 C242.537387,76.2476794 209.303891,87.3496109 194.121076,116.494189 C188.476389,127.322991 186.141396,138.86675 187.116095,151.125468 C188.219326,165.033676 193.135666,177.080852 201.865115,187.266994 C206.588658,192.783149 212.854581,197.79321 220.662886,202.297178 C221.642941,202.867538 223.586984,203.1969 223.683383,204.83568 C224.189477,213.59994 223.217455,220.99855 223.386153,229.570012 C223.391509,229.736033 223.37812,233.798172 223.345987,241.756431 C223.347431,241.89729 223.244413,242.017477 223.10499,242.037594 C222.341832,242.142026 221.49031,241.812663 220.389756,241.82873 C198.742864,242.080438 181.972146,242.334824 170.077602,242.591887 C164.620358,242.709708 159.48712,243.842394 154.67789,245.989946 C152.404484,247.002133 150.291743,248.496315 147.913905,250.343959 C146.26977,251.623922 144.505136,253.672397 142.620003,256.489385 C139.058602,261.807387 134.09674,269.575525 127.734418,279.793801 C124.6443,284.752985 122.419094,288.279575 121.058799,290.373572 C116.64052,297.153623 113.081796,303.226749 107.996758,311.09932 C104.478201,316.56192 100.766846,321.944188 97.5294523,327.679918 C94.790119,332.540025 94.0028619,336.540577 94.0108951,342.340573 C94.0108951,346.734752 93.2075716,351.490428 93.2477378,356.463001 C93.3173591,366.113594 93.2504155,373.584503 93.0469069,378.875728 C92.7657436,386.161872 93.9466293,392.861591 93.9144963,399.440811 C93.8984298,403.63416 94.3188358,406.94653 95.1757143,409.377923 C99.6261268,421.990103 112.390938,426.802011 124.689822,426.785944 C133.965531,426.764522 171.769937,426.839499 238.103041,427.010875 C286.500607,427.134051 336.180813,427.037652 387.143659,426.721678 C400.133401,426.641346 413.002644,422.849659 417.107628,409.128893 C417.916307,406.42437 418.283158,402.180144 418.208181,396.396214 C418.101071,388.127337 418.170692,380.835837 418.417045,374.521714 C418.481311,372.845446 418.548254,371.918946 418.617876,371.742215 C418.667765,371.610105 418.80709,371.536959 418.939205,371.573517 L419.059704,371.597616 C419.170071,371.628065 419.241578,371.737029 419.228402,371.85468 C418.912428,374.382471 418.982049,377.006662 419.437266,379.727251 C419.448169,379.772699 419.487942,379.805369 419.534642,379.807237 C419.581343,379.809105 419.623598,379.779716 419.638097,379.735284 L420.296822,377.084316 C420.473553,385.144329 420.508364,393.193631 420.401254,401.232222 C420.256656,412.194911 415.423326,420.107648 405.901264,424.970433 C399.145313,428.424724 391.995733,428.866552 383.681335,428.858519 C283.726463,428.831742 197.128184,428.863875 123.886498,428.95494 C119.184377,428.960273 114.318915,427.974863 109.290109,425.998687 C97.8132933,421.49472 91.9249317,412.976812 91.6250242,400.444965 C91.5714693,398.174237 91.6357352,392.864268 91.8178218,384.515059 C92.2944605,374.37176 92.2757163,364.228462 91.7615892,354.085163 C91.7776557,346.325057 90.9502324,338.331988 93.6252998,330.949445 C94.4232679,328.737627 96.1477358,325.585921 98.7987035,321.494326 C108.197589,306.997014 120.402752,287.819003 135.414191,263.960294 C140.351953,256.109145 143.798211,251.321336 145.752965,249.596869 C149.96238,245.890869 154.980475,243.202413 160.807248,241.5315 C163.897366,240.642489 169.582219,240.254216 177.861807,240.366681 C182.617483,240.425591 197.031785,240.457724 221.104714,240.46308 C221.495138,240.46308 221.811639,240.146579 221.811639,239.756155 L221.811639,205.454239 C221.811598,205.2049 221.679941,204.975266 221.46621,204.851747 C214.31663,200.666431 208.404169,197.139841 202.893369,191.291645 C186.867064,174.293319 180.464576,149.237657 187.630222,126.632133 C198.531322,92.2257848 236.223263,72.2390949 270.942907,84.6665102 C290.045941,91.5027936 304.160336,105.74572 310.956453,124.800555 C315.920993,138.703408 315.886182,152.981145 310.852021,167.633767 C306.120446,181.386666 297.01879,193.09109 284.40661,200.939561 C282.955272,201.844639 280.896086,203.076402 278.229052,204.634849 C277.856109,204.848378 277.62618,205.246922 277.626559,205.67917 L277.626559,239.699922 C277.62653,240.033994 277.895009,240.306053 278.229052,240.310448 C296.807248,240.444336 315.977226,240.406847 335.738985,240.197983 C342.909987,240.123006 348.011091,240.500568 351.042299,241.330669 C356.836939,242.915894 361.986243,245.706105 366.490211,249.701301 C368.541363,251.522167 371.269986,255.204067 374.676078,260.746999 C377.4288,265.224189 390.959446,286.622051 415.268017,324.940584 C421.252777,334.371603 420.561919,343.907053 420.280756,356.80843 Z" id="Path" fill="#CDCDCD" fill-rule="nonzero"></path>
            <path d="M419.983948,356.739649 L420,377.017291 L419.341865,379.668488 C419.327379,379.712924 419.285162,379.742315 419.238503,379.740447 C419.191845,379.738579 419.152107,379.705906 419.141214,379.660454 C418.686405,376.93963 418.616846,374.315212 418.932537,371.787202 C418.945701,371.66954 418.874258,371.560568 418.76399,371.530116 L418.6436,371.506014 C418.511603,371.469453 418.372403,371.542605 418.322558,371.674727 C418.252999,371.851473 418.186115,372.778053 418.121907,374.454467 C417.875775,380.769137 417.806216,388.061268 417.91323,396.330861 C417.98814,402.115291 417.621617,406.359884 416.813663,409.064641 C412.712357,422.786595 399.854644,426.578611 386.87654,426.65895 C335.959352,426.974951 286.323656,427.071358 237.96945,426.948171 C171.695776,426.776781 133.925239,426.701797 124.657841,426.723221 C112.369976,426.739289 99.6166008,421.926965 95.1701756,409.313693 C94.3140648,406.88209 93.8940355,403.569432 93.9100876,399.375721 C93.9421917,392.795931 92.7623641,386.095633 93.0432754,378.808857 C93.2466017,373.517175 93.3134854,366.045619 93.2439264,356.39419 C93.2037962,351.421187 94.0064,346.6651 94.0064,342.27054 C93.998374,336.470042 94.7849258,332.469144 97.5218048,327.608616 C100.756298,321.872389 104.464328,316.489656 107.979733,311.026583 C113.060215,303.15333 116.61575,297.079679 121.030071,290.299041 C122.389147,288.204863 124.61236,284.677967 127.699709,279.718354 C134.056331,269.499194 139.013748,261.730383 142.571958,256.41192 C144.455402,253.594689 146.218455,251.546036 147.861117,250.265963 C150.236825,248.418159 152.347673,246.923848 154.619042,245.911573 C159.423963,243.763835 164.552602,242.631051 170.004957,242.51322 C181.888845,242.256134 198.644537,242.001726 220.272035,241.749997 C221.371603,241.733929 222.222363,242.06332 222.984836,241.958879 C223.124135,241.938761 223.22706,241.818563 223.225618,241.677691 C223.257722,233.718744 223.271098,229.656253 223.265748,229.490218 C223.097201,220.918014 224.068352,213.518763 223.562711,204.753745 C223.466399,203.114823 221.524097,202.785432 220.544921,202.215023 C212.743611,197.710665 206.483302,192.700171 201.763991,187.183538 C193.042363,176.996514 188.130427,164.948295 187.028185,151.038883 C186.054359,138.779104 188.38726,127.234346 194.02689,116.404607 C209.196103,87.2575056 242.399823,76.1546131 272.802457,87.1932342 C273.530151,87.4556759 275.638323,88.492053 279.126975,90.3023654 C288.512089,95.1816395 295.885343,101.646276 301.246736,109.696275 C303.820419,113.557917 306.032931,117.756985 307.88427,122.293478 C315.80597,141.639184 313.25369,164.447514 301.439361,181.79277 C299.80205,184.192238 297.602915,186.720248 294.841958,189.376801 C292.653525,191.487047 290.205583,193.870446 287.498133,196.527 C286.993193,197.027148 286.407578,197.442366 285.764508,197.756191 C284.582005,198.323922 283.455685,199.05501 282.385546,199.949454 C282.25201,200.056398 282.11238,200.150472 281.968192,200.230642 L276.590747,203.018416 C275.998173,203.329241 275.627095,203.942123 275.627622,204.609134 L275.627622,241.830336 C275.626542,242.12147 275.847392,242.363591 276.133262,242.384677 C277.65821,242.502508 279.201884,242.542678 280.764287,242.505186 C297.843696,242.095456 312.82831,242.191863 342.364131,242.352541 C347.990384,242.376643 353.02271,243.895056 358.063062,246.104387 C363.368273,248.434227 366.634871,252.28248 369.684766,257.102838 C370.79771,258.859591 375.035458,265.605415 382.39801,277.34031 C387.288543,285.133223 397.516391,301.281424 413.081555,325.784914 C416.749454,331.56131 417.83297,337.032417 417.776787,344.889601 C417.760735,347.481883 417.878451,351.014135 418.129933,355.486356 C418.140188,355.735035 418.236817,355.971154 418.402818,356.153172 C418.777367,356.581649 419.30441,356.777141 419.983948,356.739649 Z M262.461113,256.105308 C262.345821,256.105308 262.252359,256.011517 262.252359,255.895821 L262.252359,196.345063 C262.253545,196.187499 262.358221,196.04963 262.509287,196.006661 C279.442447,191.196513 292.280817,178.619226 297.250768,161.763566 C303.184198,141.64474 296.881434,119.930589 280.590594,107.055185 C247.687754,81.0465466 198.791147,103.695333 198.694799,146.172886 C198.638596,169.643506 212.922186,189.544787 235.52382,195.901917 C235.705216,195.955632 235.829517,196.123043 235.828922,196.312835 L235.828922,255.597704 C235.828873,255.817086 235.650414,255.996172 235.427472,256.000564 C216.810898,256.054279 195.044281,256.051593 170.127619,255.992507 C162.797142,255.976393 156.197305,258.184065 152.239008,264.597596 C145.596349,275.372756 131.007657,298.609718 108.472932,334.308481 C106.851074,336.881413 106.037469,340.109664 106.032116,343.993234 C106.010705,362.438848 106,382.168242 106,403.181417 C106,412.431082 115.393929,415.976249 123.382784,415.968192 C146.233316,415.968192 231.980355,415.973563 380.623899,415.984306 C388.403999,415.984306 399.692772,416.69334 403.924055,408.579741 C404.646665,407.199274 405.005294,404.642456 405,400.909287 C404.994588,380.36343 404.908946,362.191761 404.743013,346.394279 C404.694839,341.326301 404.783158,338.53851 402.494893,334.816084 C390.355046,315.051775 377.613024,295.094094 357.677018,263.195643 C357.484904,262.895729 357.261493,262.617511 357.010611,262.365751 C352.894411,258.192122 347.841494,256.083822 341.85186,256.04085 C322.807073,255.895821 296.343491,255.917307 262.461113,256.105308 Z" id="Shape" fill="#F5F5F5" fill-rule="nonzero"></path>
            <path d="M262.461113,256.105308 C296.343491,255.917307 322.807073,255.895821 341.85186,256.04085 C347.841494,256.083822 352.894411,258.192122 357.010611,262.365751 C357.261493,262.617511 357.484904,262.895729 357.677018,263.195643 C377.613024,295.094094 390.355046,315.051775 402.494893,334.816084 C404.783158,338.53851 404.694839,341.326301 404.743013,346.394279 C404.908946,362.191761 404.994588,380.36343 405,400.909287 C405.005294,404.642456 404.646665,407.199274 403.924055,408.579741 C399.692772,416.69334 388.403999,415.984306 380.623899,415.984306 C231.980355,415.973563 146.233316,415.968192 123.382784,415.968192 C115.393929,415.976249 106,412.431082 106,403.181417 C106,382.168242 106.010705,362.438848 106.032116,343.993234 C106.037469,340.109664 106.851074,336.881413 108.472932,334.308481 C131.007657,298.609718 145.596349,275.372756 152.239008,264.597596 C156.197305,258.184065 162.797142,255.976393 170.127619,255.992507 C195.044281,256.051593 216.810898,256.054279 235.427472,256.000564 C235.650414,255.996172 235.828873,255.817086 235.828922,255.597704 L235.828922,196.312835 C235.829517,196.123043 235.705216,195.955632 235.52382,195.901917 C212.922186,189.544787 198.638596,169.643506 198.694799,146.172886 C198.791147,103.695333 247.687754,81.0465466 280.590594,107.055185 C296.881434,119.930589 303.184198,141.64474 297.250768,161.763566 C292.280817,178.619226 279.442447,191.196513 262.509287,196.006661 C262.358221,196.04963 262.253545,196.187499 262.252359,196.345063 L262.252359,255.895821 C262.252359,256.011517 262.345821,256.105308 262.461113,256.105308 Z M203.235428,141.788428 C202.56247,148.51804 203.336256,155.315564 205.504938,161.725526 C209.566848,173.7343 218.263153,183.622308 229.65901,189.189565 C241.507783,194.969898 255.226622,195.567272 267.535512,190.838862 C278.008772,186.813906 286.720641,179.209679 292.127275,169.373739 C295.234024,163.725204 297.156357,157.499689 297.776734,151.077854 C298.962537,138.890711 295.393601,126.716494 287.815206,117.097473 C280.512849,107.830916 270.021599,101.614416 258.384523,99.6585757 C245.359506,97.467273 232.00894,100.797896 221.537406,108.850984 C211.156453,116.837508 204.533818,128.756037 203.235428,141.788428 L203.235428,141.788428 Z M249.559105,287 C252.548459,286.994668 255.322411,286.384121 257.880962,285.168359 C258.562758,284.845638 258.998987,284.153443 259,283.392708 L259,197.305593 C258.998252,197.218406 258.960625,197.135942 258.896243,197.078195 C258.831861,197.020448 258.746601,196.992691 258.661136,197.001653 C255.650768,197.329589 252.742846,197.849487 249.49606,197.857485 C246.257156,197.857485 243.349234,197.337587 240.330984,197.009651 C240.24546,197.002954 240.161069,197.032838 240.098211,197.092079 C240.035352,197.151321 239.999747,197.234529 240,197.32159 L240.11821,283.408704 C240.119214,284.169444 240.555444,284.86164 241.237247,285.184356 C243.801052,286.394785 246.575004,287 249.559105,287 Z M262.315093,258.591558 L262.315093,266.610906 C262.313783,266.93063 262.556941,267.199553 262.877357,267.232749 C270.599114,267.981114 277.694349,270.11853 284.163061,273.644997 C287.633032,275.526677 292.082949,279.516161 292.163272,283.683314 C292.243596,287.872004 292.278402,291.30156 292.267693,293.971984 C292.256983,296.211695 291.876785,297.948009 291.1271,299.180926 C287.649097,304.914801 278.693036,308.274366 272.162743,309.77648 C255.268052,313.658286 238.646461,313.284103 222.29797,308.653933 C217.291144,307.232578 213.100939,305.05209 209.727356,302.112471 C204.803531,297.816103 206.10477,292.37296 205.944123,287.341688 C205.767412,282.076215 206.924069,278.934698 210.578784,276.083912 C217.49463,270.689225 226.860339,268.153399 235.479041,267.184293 C235.693775,267.156048 235.854901,266.969921 235.856561,266.748196 L235.856561,258.421965 C235.856561,258.216796 235.691136,258.050474 235.487074,258.050474 C216.680686,258.023555 194.971945,258.023555 170.360852,258.050474 C164.890828,258.05855 158.697893,259.673726 155.725927,264.381963 C148.202301,276.328881 133.532568,299.740854 111.71673,334.617884 C106.26277,343.339833 114.929666,347.67658 121.990094,347.846174 C126.568529,347.953852 132.986369,348.004999 141.243616,348 C215.687353,347.940392 296.016119,347.929624 382.229913,347.967312 C387.242094,347.975388 392.165919,348.258044 396.358801,346.182543 C401.317433,343.722091 402.302733,339.982959 399.314702,334.965147 C389.924896,319.209107 374.061022,294.609979 355.56254,264.874592 C352.719092,260.295569 346.959903,258.042398 341.851334,258.018171 C332.801563,257.985867 306.468872,257.996635 262.85326,258.050474 C262.556038,258.050474 262.315093,258.292726 262.315093,258.591558 Z M251.012348,299 C262.084057,298.992173 273.012802,297.31516 282.567511,292.939327 C287.618879,290.622709 293.559796,285.599471 287.317068,280.21743 C281.50323,275.209791 272.218562,272.877574 264.617683,272.003967 C264.469436,271.98551 264.320429,272.032051 264.210273,272.131217 C264.100118,272.230383 264.039974,272.372128 264.04583,272.518771 C264.183498,275.898797 264.191441,279.723426 264.069657,283.992658 C264.01406,285.841272 263.172166,286.79288 261.694879,287.635286 C258.433199,289.4917 254.869708,290.422507 251.004406,290.427707 C247.139104,290.427707 243.575613,289.5021 240.313933,287.650886 C238.836646,286.80848 237.986809,285.856873 237.931213,284.008258 C237.804134,279.739026 237.806782,275.914397 237.939155,272.534371 C237.945011,272.387728 237.884867,272.245983 237.774712,272.146817 C237.664556,272.047651 237.515549,272.00111 237.367302,272.019567 C229.766423,272.900974 220.489698,275.248792 214.67586,280.26423 C208.441074,285.654071 214.389933,290.669509 219.441301,292.978327 C229.003953,297.34636 239.932698,299.007773 251.012348,299 Z M249.978709,310 C258.391159,310.010484 266.324283,309.085317 273.77808,307.224411 C279.3415,305.834019 283.852017,303.737856 287.309631,300.935924 C288.409471,300.041232 289.174096,298.813541 289.482758,297.446725 L289.975548,295.289766 C290.06799,294.89121 289.893064,294.478923 289.539743,294.262605 C289.186422,294.046286 288.732282,294.073433 288.408312,294.330236 C285.300768,296.746242 281.447305,298.630938 276.847925,299.984324 C268.338532,302.49549 259.384819,303.743143 249.986787,303.727283 C240.583369,303.711423 231.63235,302.437337 223.133728,299.905024 C218.539733,298.535778 214.691656,296.637865 211.589498,294.211286 C211.266622,293.956851 210.815469,293.929695 210.463343,294.1435 C210.111217,294.357305 209.934513,294.765685 210.022262,295.162886 L210.506974,297.327775 C210.81349,298.693525 211.575187,299.921077 212.672022,300.816974 C216.118865,303.629479 220.621303,305.741502 226.179337,307.153041 C233.627749,309.035094 241.560872,309.98405 249.978709,310 Z M256.5,410.935302 C338.977028,410.935302 383.300503,410.956634 389.470425,410.999299 C393.544294,411.031298 397.091462,409.967343 400.111929,407.807434 C401.998377,406.458158 402.944289,404.930222 402.949663,403.223627 C403.035655,384.483085 403.01147,366.18519 402.877108,348.329943 C402.876398,348.21034 402.809776,348.100213 402.704491,348.044606 C402.599206,347.988999 402.472917,347.997238 402.377279,348.065955 C396.782428,351.929792 391.872825,351.785798 384.141612,351.785798 C345.251753,351.785798 302.704549,351.785798 256.5,351.785798 C210.295451,351.785798 167.74556,351.783131 128.850327,351.777798 C121.127175,351.777798 116.217572,351.921792 110.622721,348.057955 C110.527083,347.989239 110.400794,347.980999 110.295509,348.036606 C110.190224,348.092214 110.123602,348.202341 110.122892,348.321944 C109.98853,366.17719 109.964345,384.475085 110.050337,403.215628 C110.055711,404.922222 111.001623,406.450158 112.888071,407.799434 C115.903164,409.959343 119.450332,411.023298 123.529575,410.9913 C129.699497,410.948635 174.022972,410.929969 256.5,410.935302 Z" id="Shape" fill="#000000" fill-rule="nonzero"></path>
            <path d="M290.237536,167.707801 C278.822023,173.812033 267.634502,176.908878 256.674974,176.998336 C235.20925,177.164098 216.193115,164.929323 205.114288,146.679775 C204.764347,146.100925 204.509844,145.501027 204.35078,144.880079 C204.28824,144.631198 204.165408,144.400927 203.992885,144.20914 C203.250585,143.367177 202.924504,142.222633 203.01464,140.775509 C204.288653,128.05163 210.786947,116.415246 220.972997,108.617785 C231.247927,100.755335 244.347835,97.5035568 257.128307,99.6429854 C268.546895,101.552525 278.841171,107.621864 286.006426,116.669056 C293.442537,126.060369 296.944465,137.946389 295.780926,149.845029 C295.172197,156.114841 293.285955,162.192982 290.237536,167.707801 L290.237536,167.707801 Z M282.019046,132.438032 C283.526016,129.7507 283.123083,126.305812 281.978752,123.650377 C279.147475,117.074256 274.35257,112.4412 267.594036,109.75121 C264.338336,108.451403 260.309004,108.762399 257.794701,111.282271 C254.772701,114.312497 255.796152,119.902466 259.156615,122.135264 C264.572037,125.739638 268.633604,128.974537 271.341315,131.839961 C272.512508,133.073316 273.586996,133.905299 274.564781,134.33591 C277.312786,135.548001 280.471782,135.205107 282.019046,132.438032 Z" id="Shape" fill="#D24C45" fill-rule="nonzero"></path>
            <path d="M282.334035,131.821603 C280.791654,134.609135 277.642626,134.954565 274.903292,133.733513 C273.928593,133.299718 272.857495,132.461584 271.689998,131.21911 C268.990831,128.332501 264.94208,125.073685 259.543746,121.442662 C256.193887,119.193356 255.173666,113.562058 258.186129,110.509429 C260.692499,107.970926 264.709117,107.65763 267.954544,108.967048 C274.691751,111.676926 279.471526,116.344236 282.293869,122.968977 C283.434589,125.644045 283.83625,129.114402 282.334035,131.821603 Z" id="Path" fill="#EAE9E1" fill-rule="nonzero"></path>
            <path d="M202.837137,141.573951 C202.746093,143.04671 203.075456,144.21153 203.825225,145.068408 C203.999483,145.263593 204.123551,145.497943 204.18672,145.751233 C204.347385,146.383181 204.604448,146.993707 204.957911,147.582811 C216.148208,166.155651 235.355674,178.607166 257.037377,178.438468 C268.107175,178.347425 279.40726,175.195719 290.937631,168.98335 C285.579128,178.756567 276.944816,186.312301 266.564794,190.31159 C254.365483,195.009847 240.768775,194.416282 229.025484,188.67281 C217.731078,183.141056 209.112192,173.316104 205.086443,161.383909 C202.937067,155.014824 202.17017,148.260647 202.837137,141.573951 L202.837137,141.573951 Z" id="Path" fill="#A33C36" fill-rule="nonzero"></path>
            <path d="M249.606634,197.099674 C252.916327,197.091641 255.880591,196.569481 258.949287,196.240118 C259.036408,196.231117 259.123319,196.258995 259.188949,196.316994 C259.254578,196.374992 259.292934,196.457815 259.294716,196.545381 L259.294716,283.007095 C259.293684,283.771141 258.849002,284.466347 258.153996,284.790473 C255.545873,286.011525 252.718174,286.624729 249.6709,286.630084 C246.628981,286.630084 243.801282,286.022236 241.187803,284.80654 C240.49279,284.48242 240.048107,283.787212 240.047084,283.023162 L239.926584,196.561448 C239.926326,196.474007 239.962621,196.390437 240.026697,196.330938 C240.090773,196.271439 240.176799,196.241425 240.263981,196.248152 C243.34071,196.577514 246.304974,197.099674 249.606634,197.099674 Z" id="Path" fill="#373838" fill-rule="nonzero"></path>
            <path d="M262.85326,258.050474 C306.468872,257.996635 332.801563,257.985867 341.851334,258.018171 C346.959903,258.042398 352.719092,260.295569 355.56254,264.874592 C374.061022,294.609979 389.924896,319.209107 399.314702,334.965147 C402.302733,339.982959 401.317433,343.722091 396.358801,346.182543 C392.165919,348.258044 387.242094,347.975388 382.229913,347.967312 C296.016119,347.929624 215.687353,347.940392 141.243616,348 C132.986369,348.004999 126.568529,347.953852 121.990094,347.846174 C114.929666,347.67658 106.26277,343.339833 111.71673,334.617884 C133.532568,299.740854 148.202301,276.328881 155.725927,264.381963 C158.697893,259.673726 164.890828,258.05855 170.360852,258.050474 C194.971945,258.023555 216.680686,258.023555 235.487074,258.050474 C235.691136,258.050474 235.856561,258.216796 235.856561,258.421965 L235.856561,266.748196 C235.854901,266.969921 235.693775,267.156048 235.479041,267.184293 C226.860339,268.153399 217.49463,270.689225 210.578784,276.083912 C206.924069,278.934698 205.767412,282.076215 205.944123,287.341688 C206.10477,292.37296 204.803531,297.816103 209.727356,302.112471 C213.100939,305.05209 217.291144,307.232578 222.29797,308.653933 C238.646461,313.284103 255.268052,313.658286 272.162743,309.77648 C278.693036,308.274366 287.649097,304.914801 291.1271,299.180926 C291.876785,297.948009 292.256983,296.211695 292.267693,293.971984 C292.278402,291.30156 292.243596,287.872004 292.163272,283.683314 C292.082949,279.516161 287.633032,275.526677 284.163061,273.644997 C277.694349,270.11853 270.599114,267.981114 262.877357,267.232749 C262.556941,267.199553 262.313783,266.93063 262.315093,266.610906 L262.315093,258.591558 C262.315093,258.292726 262.556038,258.050474 262.85326,258.050474 Z M168.904591,328.999132 C174.023011,329.031717 178.767764,328.146499 183.138851,326.343478 C187.542197,324.52688 192.300392,320.795929 192.929441,315.86749 C193.405261,312.177271 191.413271,309.562347 188.800296,306.980008 C188.518649,306.705277 188.286525,306.379781 188.114794,306.018759 C184.751799,299.02119 176.316084,297.049814 169.122339,297.000937 C161.92053,296.95206 153.460621,298.801243 150.000849,305.749935 C149.82343,306.109319 149.585825,306.432084 149.299217,306.703038 C146.653983,309.252792 144.629734,311.835131 145.057165,315.533497 C145.613632,320.470082 150.323438,324.266202 154.694526,326.147969 C159.044107,328.010729 163.780795,328.961117 168.904591,328.999132 Z M334.858008,328.997607 C339.981144,329.051855 344.731054,328.183886 349.107738,326.393699 C353.513958,324.587238 358.282663,320.868532 358.927083,315.945519 C359.410397,312.259362 357.428807,309.63918 354.826963,307.04341 C354.54559,306.768797 354.313748,306.44367 354.142267,306.083219 C350.79934,299.077079 342.365497,297.075325 335.172163,297.00209 C327.978828,296.928855 319.512765,298.759728 316.032899,305.70077 C315.855708,306.059562 315.618393,306.381958 315.332092,306.652823 C312.673861,309.191633 310.635884,311.77113 311.054757,315.465424 C311.602513,320.404711 316.298722,324.212926 320.664665,326.108897 C325.009128,327.98588 329.740242,328.948783 334.858008,328.997607 Z" id="Shape" fill="#EAE9E1" fill-rule="nonzero"></path>
            <path d="M249.6227,290.228974 C253.532208,290.223618 257.136453,289.264986 260.435435,287.353075 C261.929617,286.485486 262.78114,285.505431 262.837373,283.601554 C262.960549,279.204697 262.952516,275.265734 262.813273,271.784665 C262.80735,271.633638 262.868181,271.487656 262.979597,271.385525 C263.091012,271.283394 263.241723,271.235463 263.391666,271.254472 C271.079472,272.154194 280.470325,274.556131 286.350653,279.713468 C292.664776,285.256401 286.655916,290.429805 281.546778,292.815676 C271.882796,297.322321 260.829064,299.049466 249.630734,299.057528 C238.42437,299.065533 227.370638,297.354454 217.698622,292.855842 C212.589485,290.478004 206.572591,285.312634 212.878681,279.761668 C218.759009,274.596297 228.141829,272.178294 235.829635,271.270538 C235.979577,271.251529 236.130289,271.299461 236.241704,271.401592 C236.35312,271.503723 236.413951,271.649705 236.408028,271.800732 C236.274141,275.2818 236.271463,279.220763 236.399995,283.617621 C236.456227,285.521498 237.315783,286.501553 238.809965,287.369142 C242.108947,289.275697 245.713192,290.228974 249.6227,290.228974 Z" id="Path" fill="#373838" fill-rule="nonzero"></path>
            <path d="M249.6468,302.720655 C258.992131,302.736721 267.895633,301.472826 276.357308,298.928968 C280.930897,297.557962 284.76275,295.64873 287.852868,293.201271 C288.175022,292.941124 288.626615,292.913624 288.977954,293.132759 C289.329294,293.351893 289.503239,293.769548 289.411316,294.173292 L288.921288,296.358332 C288.614358,297.742943 287.854021,298.986617 286.760348,299.892956 C283.322123,302.731366 278.8369,304.854818 273.304679,306.263312 C265.89268,308.148444 258.004043,309.085655 249.638767,309.075035 C241.268135,309.058878 233.379498,308.097567 225.972855,306.191013 C220.445989,304.761097 215.968799,302.621578 212.541285,299.772458 C211.450601,298.864898 210.693176,297.621364 210.388378,296.237834 L209.906384,294.044761 C209.819128,293.642389 209.99484,293.228692 210.344991,293.012103 C210.695143,292.795515 211.143767,292.823025 211.464832,293.080772 C214.549594,295.538942 218.376092,297.461563 222.944325,298.848635 C231.395289,301.413915 240.296114,302.704589 249.6468,302.720655 Z" id="Path" fill="#373838" fill-rule="nonzero"></path>
            <path d="M169.122339,297.000937 C176.316084,297.049814 184.751799,299.02119 188.114794,306.018759 C188.286525,306.379781 188.518649,306.705277 188.800296,306.980008 C191.413271,309.562347 193.405261,312.177271 192.929441,315.86749 C192.300392,320.795929 187.542197,324.52688 183.138851,326.343478 C178.767764,328.146499 174.023011,329.031717 168.904591,328.999132 C163.780795,328.961117 159.044107,328.010729 154.694526,326.147969 C150.323438,324.266202 145.613632,320.470082 145.057165,315.533497 C144.629734,311.835131 146.653983,309.252792 149.299217,306.703038 C149.585825,306.432084 149.82343,306.109319 150.000849,305.749935 C153.460621,298.801243 161.92053,296.95206 169.122339,297.000937 Z M155,308 C155,312.418278 162.163444,316 171,316 C179.836556,316 187,312.418278 187,308 C187,303.581722 179.836556,300 171,300 C166.756536,300 162.686874,300.842855 159.686292,302.343146 C156.685709,303.843437 155,305.878268 155,308 L155,308 Z M169.969581,325.999777 C172.985552,326.01114 176.019882,325.587882 179.07257,324.730002 C183.824693,323.400574 193.297467,318.116947 188.836451,311.273799 C188.767231,311.169186 188.651018,311.112765 188.534144,311.127029 C188.417271,311.141293 188.318742,311.223923 188.27784,311.341975 C185.980457,317.776068 175.64223,320.017348 169.985316,319.991783 C164.320534,319.974739 153.998043,317.665282 151.739998,311.222667 C151.700879,311.10344 151.603211,311.018825 151.48616,311.002754 C151.369109,310.986683 151.251844,311.041787 151.181388,311.145969 C146.688901,317.95503 156.122336,323.306832 160.866591,324.670349 C163.919279,325.545272 166.953609,325.988415 169.969581,325.999777 Z" id="Shape" fill="#000000" fill-rule="nonzero"></path>
            <path d="M334.858008,328.997607 C329.740242,328.948783 325.009128,327.98588 320.664665,326.108897 C316.298722,324.212926 311.602513,320.404711 311.054757,315.465424 C310.635884,311.77113 312.673861,309.191633 315.332092,306.652823 C315.618393,306.381958 315.855708,306.059562 316.032899,305.70077 C319.512765,298.759728 327.978828,296.928855 335.172163,297.00209 C342.365497,297.075325 350.79934,299.077079 354.142267,306.083219 C354.313748,306.44367 354.54559,306.768797 354.826963,307.04341 C357.428807,309.63918 359.410397,312.259362 358.927083,315.945519 C358.282663,320.868532 353.513958,324.587238 349.107738,326.393699 C344.731054,328.183886 339.981144,329.051855 334.858008,328.997607 Z M319,307.972073 C318.996305,310.093794 320.67847,312.131558 323.676443,313.637078 C326.674416,315.142599 330.742617,315.99255 334.986083,316 C339.229545,316.007359 343.300674,315.171613 346.303865,313.676568 C349.307057,312.181523 350.996305,310.149646 351,308.027927 C351.003695,305.906206 349.32153,303.868442 346.323557,302.362922 C343.325584,300.857401 339.257383,300.00745 335.013917,300 C330.770455,299.992641 326.699326,300.828387 323.696135,302.323432 C320.692943,303.818477 319.003695,305.850354 319,307.972073 Z M334.997757,326 C338.165289,326 341.352035,325.564991 344.557995,324.694972 C349.539859,323.347297 359.470649,318.016302 354.768757,311.15851 C354.695485,311.058351 354.576505,311.005185 354.457229,311.019306 C354.337953,311.033426 354.236787,311.112652 354.192343,311.226746 C351.787873,317.692177 340.943055,319.969578 334.997757,319.969578 C329.052458,319.969578 318.20764,317.675118 315.811404,311.209687 C315.76696,311.095593 315.665794,311.016366 315.546518,311.002246 C315.427242,310.988126 315.308263,311.041291 315.23499,311.141451 C310.524864,317.990713 320.455654,323.330238 325.437518,324.686443 C328.643478,325.562148 331.830224,326 334.997757,326 Z" id="Shape" fill="#000000" fill-rule="nonzero"></path>
            <ellipse id="Oval" fill="#F5F5F5" fill-rule="nonzero" transform="translate(170.085635, 308.014557) rotate(-180.000000) translate(-170.085635, -308.014557) " cx="170.085635" cy="308.014557" rx="16.0022051" ry="7.99306934"></ellipse>
            <path d="M334.925498,300.053571 C326.101048,300.038231 318.941178,303.600763 318.93345,308.01077 C318.925784,312.420777 326.073175,316.008279 334.897625,316.023743 C343.722076,316.039082 350.881946,312.476551 350.889673,308.066544 C350.89734,303.656537 343.749949,300.069035 334.925498,300.053571 Z" id="Oval" fill="#F5F5F5" fill-rule="nonzero"></path>
            <path d="M334.999927,319.397652 C340.799923,319.397652 351.379695,317.252778 353.725399,311.163586 C353.768757,311.05613 353.867451,310.981514 353.983812,310.968216 C354.100173,310.954918 354.216244,311.004989 354.287726,311.09932 C358.874703,317.558041 349.186621,322.578813 344.326514,323.848064 C341.198907,324.667454 338.090045,325.077149 334.999927,325.077149 C331.909809,325.077149 328.800947,324.664777 325.673341,323.840031 C320.813233,322.562747 311.125151,317.533941 315.720162,311.083253 C315.791644,310.988923 315.907715,310.938851 316.024076,310.95215 C316.140437,310.965448 316.239131,311.040064 316.282489,311.147519 C318.62016,317.236712 329.199931,319.397652 334.999927,319.397652 Z" id="Path" fill="#F5F5F5" fill-rule="nonzero"></path>
            <path d="M170.093669,325.101249 C167.014262,325.090538 163.916111,324.67281 160.799215,323.848064 C155.955174,322.562747 146.323325,317.517875 150.910302,311.09932 C150.98224,311.001113 151.101972,310.949169 151.221485,310.964318 C151.340997,310.979468 151.44072,311.05923 151.480662,311.171619 C153.786201,317.244745 164.325806,319.421752 170.109735,319.437818 C175.885632,319.461918 186.441303,317.349177 188.787008,311.284084 C188.828769,311.172802 188.92937,311.094912 189.048703,311.081466 C189.168035,311.06802 189.286692,311.121205 189.357367,311.219818 C193.912212,317.670506 184.240196,322.651112 179.388122,323.904297 C176.271227,324.712976 173.173076,325.11196 170.093669,325.101249 Z" id="Path" fill="#F5F5F5" fill-rule="nonzero"></path>
            <path d="M256.081422,351.54666 C302.122572,351.54666 344.519311,351.54666 383.27164,351.54666 C390.975512,351.54666 395.867753,351.691259 401.442818,347.811206 C401.538118,347.742202 401.66396,347.733927 401.768873,347.789768 C401.873785,347.845608 401.940172,347.956198 401.940879,348.076303 C402.074766,366.006484 402.098866,384.381172 402.013178,403.200365 C402.007823,404.914122 401.065256,406.44847 399.185479,407.803409 C396.175694,409.972382 392.64107,411.040803 388.581608,411.00867 C382.433505,410.965826 338.266776,410.944404 256.081422,410.944404 C173.896067,410.939048 129.729338,410.957793 123.581235,411.000637 C119.516418,411.032769 115.981794,409.964349 112.977364,407.795376 C111.097587,406.440436 110.155021,404.906089 110.149665,403.192332 C110.063977,384.373139 110.088077,365.998451 110.221964,348.068269 C110.222672,347.948165 110.289058,347.837575 110.393971,347.781735 C110.498883,347.725894 110.624725,347.734168 110.720025,347.803173 C116.29509,351.683225 121.187331,351.538627 128.883171,351.538627 C167.640854,351.543983 210.040271,351.54666 256.081422,351.54666 Z" id="Path" fill="#CDCDCD" fill-rule="nonzero"></path>
            <path d="M91.7615892,354.085163 C92.2757163,364.228462 92.2944605,374.37176 91.8178218,384.515059 C91.2608508,374.37176 91.2421066,364.228462 91.7615892,354.085163 Z" id="Path" fill="#373838" fill-rule="nonzero"></path>
        </g>
    </g>
</svg>