<?xml version="1.0" encoding="UTF-8"?>
<svg width="370px" height="370px" viewBox="0 0 370 370" version="1.1" xmlns="http://www.w3.org/2000/svg" xmlns:xlink="http://www.w3.org/1999/xlink">
    <title>reachy-head-icon</title>
    <g id="reachy-head-icon" stroke="none" stroke-width="1" fill="none" fill-rule="evenodd">
        <path d="M184.63163,96.029942 C215.009007,96.0200397 248.882264,97.3050095 280.653185,99.7650149 C289.313255,100.436999 298.394394,101.551643 306.494263,104.734749 C315.276084,108.179251 322.243508,113.152912 327.335333,119.734511 C332.460859,126.359672 335.669877,134.580938 337.070372,144.34794 C337.838923,149.721341 338.323088,155.162571 338.52335,160.672988 C339.084954,176.008085 339.116013,190.051513 338.613915,202.802185 C338.238882,212.274168 337.517954,223.032975 335.161451,231.54524 C330.075339,249.906346 317.789004,261.678398 298.43549,267.001382 C292.665372,268.599408 283.311001,269.333512 276.360368,269.811548 C246.361004,271.854016 215.554632,273.120037 184.708394,273.13006 C153.872079,273.139964 123.05572,271.903867 93.0562385,269.881318 C86.1019432,269.412597 76.7473761,268.687836 70.972757,267.098142 C51.6217191,261.789665 39.3259337,250.027036 34.2273555,231.670938 C31.8610276,223.15793 31.1305308,212.399089 30.7459217,202.928092 C30.230603,190.177258 30.2517715,176.134835 30.8069105,160.795741 C31.0006625,155.286727 31.4783669,149.845503 32.2400242,144.475167 C33.63161,134.706721 36.8337048,126.483499 41.9545039,119.853988 C47.0420537,113.267523 54.0076375,108.286846 62.7906215,104.83283 C70.8789268,101.650546 79.9611301,100.526121 88.6190986,99.8448372 C120.390886,97.364845 154.254228,96.0399593 184.63163,96.029942 Z" id="Shape" stroke="#000000" stroke-width="10" fill-rule="nonzero"></path>
        <ellipse id="Oval" stroke="#000000" stroke-width="10" fill-rule="nonzero" transform="translate(124.450000, 185.460000) rotate(-165.900000) translate(-124.450000, -185.460000) " cx="124.45" cy="185.46" rx="34.1503718" ry="34"></ellipse>
        <ellipse id="Oval" stroke="#000000" stroke-width="10" fill-rule="nonzero" transform="translate(250.150000, 185.470000) rotate(-172.500000) translate(-250.150000, -185.470000) " cx="250.15" cy="185.47" rx="23.3631347" ry="23"></ellipse>
    </g>
</svg>