<?xml version="1.0" encoding="UTF-8"?>
<svg width="370px" height="487px" viewBox="0 0 370 487" version="1.1" xmlns="http://www.w3.org/2000/svg" xmlns:xlink="http://www.w3.org/1999/xlink">
    <title>reachy-body-icon</title>
    <g id="reachy-body-icon" stroke="none" stroke-width="1" fill="none" fill-rule="evenodd">
        <path d="M130.803745,32.7013251 C165.369772,27.3587054 199.380683,27.0953041 232.835015,31.9186156 C248.390916,34.1661615 263.357422,37.5427088 277.73224,42.0503998 C297.856213,48.3687149 313.230829,61.5695763 320.282699,81.64743 C321.705942,85.6981974 323.101631,90.6906005 324.479825,96.6219867 C326.466086,105.167527 328.675688,117.438939 331.117313,133.434878 C338.218668,179.932167 342.424918,224.421702 343.732371,266.903967 C344.093313,278.619799 344.179951,288.809283 343.989421,297.471575 C331.997167,299.615544 318.955111,301.245722 304.863424,302.365752 C230.781415,308.260149 156.433596,308.814877 81.8202104,304.030264 C63.5300074,302.856512 44.7705026,301.148838 26.6723531,297.384182 C26.0053417,284.599394 26.0810737,272.224744 26.6741772,259.991234 C29.1965375,207.771738 35.096986,156.574386 44.3769805,106.39736 C46.0951317,97.0867086 48.6329095,84.6742714 52.6384115,76.2310179 C61.4301648,57.6768719 75.2557258,47.6773453 94.6534656,41.3325514 C106.42956,37.4833018 118.479713,34.6063634 130.803745,32.7013251 Z" id="Path" stroke="#000000" stroke-width="10" fill-rule="nonzero"></path>
        <path d="M342.94142,327.540248 C339.810536,370.4743 328.669282,421.478973 286.708272,443.010987 C278.78598,447.074028 270.206228,450.119693 260.972452,452.157491 C245.701865,455.527642 229.457239,457.658531 212.241487,458.556687 C176.604253,460.401694 140.290629,459.72963 107.153942,451.85498 C97.1057012,449.471621 87.9594509,445.920527 79.7221761,441.185365 C53.6699683,426.206781 39.2520622,394.976464 33.1062682,366.709631 C30.3112541,353.82998 28.3767399,340.872547 27.3036343,327.837662 C35.6963189,329.237308 43.6478445,330.382427 51.3040003,331.145338 C70.8619696,333.095104 88.4333709,334.430995 104.018359,335.154631 C156.352596,337.581785 209.499231,337.508574 263.458179,334.934324 C288.765119,333.727436 316.436283,331.798802 342.94142,327.540248 Z" id="Path" stroke="#000000" stroke-width="10" fill-rule="nonzero"></path>
    </g>
</svg>