<?xml version="1.0" encoding="UTF-8"?>
<svg width="370px" height="370px" viewBox="0 0 370 370" version="1.1" xmlns="http://www.w3.org/2000/svg" xmlns:xlink="http://www.w3.org/1999/xlink">
    <title>reachy-antennas-icon</title>
    <g id="reachy-antennas-icon" stroke="none" stroke-width="1" fill="none" fill-rule="evenodd">
        <path d="M274.047,297.715 L273.902248,297.873191 C273.378792,298.462515 273.005794,299.104175 272.712298,299.77675 C272.444977,300.389343 272.266523,301.083363 272.16463,301.889015 L272.135,302.139 L272.138466,301.994421 C272.180784,300.84872 272.460048,299.747423 272.962149,298.686896 L273.119451,298.369958 L274.047,297.715 Z M265.358,284.007 L277.148758,288.821484 C278.477869,289.364148 280.116941,289.852908 281.054126,291.044415 C281.366442,291.441483 281.44062,291.968932 281.392298,292.604279 C281.195861,293.110341 280.912832,293.527567 280.454172,293.781473 C279.046576,294.561146 277.748482,295.305703 276.559282,296.01473 L276.559282,296.01473 L276.274,296.144 L280.649277,293.05966 C278.634372,291.751434 276.611298,290.45504 274.337173,289.309879 L273.5695,288.933951 C270.939368,287.682722 268.367779,286.839375 265.79014,286.007848 C265.517627,285.919938 265.245103,285.832027 264.976863,285.744932 L265.237,285.829 L265.221352,285.778475 C265.119756,285.435971 265.062048,285.105945 265.089467,284.786591 L265.116464,284.596245 C265.157418,284.391763 265.237578,284.199721 265.34604,284.014929 L265.34604,284.014929 L265.358,284.007 Z M265.003,257.887 L277.541811,262.556406 C277.895796,262.688219 278.258892,262.815918 278.625689,262.944583 C279.433703,263.228018 280.95552,263.056759 281.323793,264.260846 C281.403693,264.52252 281.410378,264.794517 281.327581,265.031172 C280.868224,265.369358 279.995917,265.731159 278.753553,266.218055 L278.753553,266.218055 L267.127481,270.774437 L278.685313,275.501241 C279.928139,276.009519 280.952474,276.413662 281.681856,276.904534 C281.822131,277.228106 281.886464,277.518509 281.759035,277.762957 C281.281463,278.679085 279.878326,278.689441 278.927812,278.9915 C278.146929,279.235357 277.813335,279.3381 277.567114,279.413928 L277.567114,279.413928 L269.001,282.051 L278.259422,277.080502 L267.053699,273.482751 C266.384664,273.267948 265.757158,273.117624 265.183243,272.781138 C265.054383,272.651368 264.932049,272.499856 264.811517,272.330865 C264.696411,271.899305 264.64016,271.505942 264.795476,271.173637 C264.938418,270.867807 265.378585,270.857421 265.720769,270.74578 L265.720769,270.74578 L264.959,270.88 C265.416635,270.780015 266.106237,270.597302 267.034551,270.264688 L267.271602,270.178373 L278.898969,265.87788 L267.541504,260.908183 C266.37157,260.396254 265.277751,260.17738 264.66933,259.436157 C264.49598,259.224968 264.597273,258.885883 264.606777,258.527642 C264.611711,258.340783 264.574215,258.147822 264.666715,258.009376 C264.755793,257.975778 264.859176,257.938443 264.976999,257.897308 L265.003,257.887 Z M271,61 C271.828427,61 272.578427,61.3357864 273.12132,61.8786797 C273.664214,62.4215729 274,63.1715729 274,64 L274,64 L274,82 C274,83.7818459 272.444564,85.1980216 270.628712,84.9829449 L270.628712,84.9829449 L270.858285,96.6735383 L271.002991,115.730097 L271.130347,134.878964 L271.348625,154.977115 L271.644262,174.873929 L271.798206,195.135445 L271.968726,214.227201 L272.182756,234.173295 L272.195196,243.590731 L275.215923,246.433604 L276.862472,247.249197 C278.307609,247.987713 279.743768,248.558372 280.425138,249.736849 C280.694076,250.201997 280.702497,250.770547 280.593923,251.447281 C279.943534,252.235729 279.095684,252.760044 278.053941,253.025049 L278.053941,253.025049 L277.954,253.05 L275.588368,248.484681 C274.437661,246.264092 273.486312,245.493488 273.033665,245.13147 L272.98176,245.089922 C271.075367,243.49497 271.640428,240.699598 271.689223,238.367427 L271.689223,238.367427 L271.704166,237.718629 C271.732588,236.61389 271.753206,235.780604 271.757229,235.028873 L271.757355,234.537717 L271.757355,234.537717 L271.755393,234.297293 L271.539423,214.838754 L271.386717,194.600913 L271.147059,175.377828 L270.969883,155.737836 L270.781175,135.771526 L270.698359,118.087243 L270.451077,96.0541006 L270.336459,86.0506205 L267.642395,84.6771572 C267.145017,84.4235884 266.727745,84.0357145 266.437317,83.5619013 C266.158616,83.1072219 266,82.5719806 266,82 L266,82 L266,64 C266,63.1715729 266.335786,62.4215729 266.87868,61.8786797 C267.421573,61.3357864 268.171573,61 269,61 L269,61 Z" id="Combined-Shape" stroke="#000000" stroke-width="10" fill-rule="nonzero"></path>
        <path d="M97.047,297.715 L96.9022484,297.873191 C96.378792,298.462515 96.0057936,299.104175 95.7122976,299.77675 C95.4449766,300.389343 95.2665232,301.083363 95.1646303,301.889015 L95.135,302.139 L95.1384659,301.994421 C95.1807844,300.84872 95.4600481,299.747423 95.9621492,298.686896 L96.1194506,298.369958 L97.047,297.715 Z M88.358,284.007 L100.148758,288.821484 C101.477869,289.364148 103.116941,289.852908 104.054126,291.044415 C104.366442,291.441483 104.44062,291.968932 104.392298,292.604279 C104.195861,293.110341 103.912832,293.527567 103.454172,293.781473 C102.046576,294.561146 100.748482,295.305703 99.5592816,296.01473 L99.5592816,296.01473 L99.274,296.144 L103.649277,293.05966 C101.634372,291.751434 99.6112976,290.45504 97.3371728,289.309879 L96.5694999,288.933951 C93.939368,287.682722 91.367779,286.839375 88.7901397,286.007848 C88.5176275,285.919938 88.2451026,285.832027 87.9768627,285.744932 L88.237,285.829 L88.2213525,285.778475 C88.1197561,285.435971 88.0620483,285.105945 88.0894674,284.786591 L88.116464,284.596245 C88.1574176,284.391763 88.2375782,284.199721 88.3460397,284.014929 L88.3460397,284.014929 L88.358,284.007 Z M88.003,257.887 L100.541811,262.556406 C100.895796,262.688219 101.258892,262.815918 101.625689,262.944583 C102.433703,263.228018 103.95552,263.056759 104.323793,264.260846 C104.403693,264.52252 104.410378,264.794517 104.327581,265.031172 C103.868224,265.369358 102.995917,265.731159 101.753553,266.218055 L101.753553,266.218055 L90.1274811,270.774437 L101.685313,275.501241 C102.928139,276.009519 103.952474,276.413662 104.681856,276.904534 C104.822131,277.228106 104.886464,277.518509 104.759035,277.762957 C104.281463,278.679085 102.878326,278.689441 101.927812,278.9915 C101.146929,279.235357 100.813335,279.3381 100.567114,279.413928 L100.567114,279.413928 L92.001,282.051 L101.259422,277.080502 L90.0536991,273.482751 C89.3846642,273.267948 88.7571582,273.117624 88.1832425,272.781138 C88.054383,272.651368 87.9320492,272.499856 87.811517,272.330865 C87.6964109,271.899305 87.6401599,271.505942 87.7954758,271.173637 C87.938418,270.867807 88.3785846,270.857421 88.7207686,270.74578 L88.7207686,270.74578 L87.959,270.88 C88.4166352,270.780015 89.1062367,270.597302 90.0345513,270.264688 L90.2716018,270.178373 L101.898969,265.87788 L90.5415036,260.908183 C89.3715695,260.396254 88.277751,260.17738 87.6693302,259.436157 C87.4959797,259.224968 87.5972727,258.885883 87.6067767,258.527642 C87.6117107,258.340783 87.5742154,258.147822 87.6667147,258.009376 C87.7557926,257.975778 87.8591765,257.938443 87.9769992,257.897308 L88.003,257.887 Z M94,61 C94.8284271,61 95.5784271,61.3357864 96.1213203,61.8786797 C96.6642136,62.4215729 97,63.1715729 97,64 L97,64 L97,82 C97,83.7818459 95.4445635,85.1980216 93.6287116,84.9829449 L93.6287116,84.9829449 L93.8582846,96.6735383 L94.002991,115.730097 L94.1303469,134.878964 L94.3486249,154.977115 L94.6442616,174.873929 L94.7982058,195.135445 L94.9687257,214.227201 L95.1827564,234.173295 L95.1951956,243.590731 L98.2159228,246.433604 L99.8624725,247.249197 C101.307609,247.987713 102.743768,248.558372 103.425138,249.736849 C103.694076,250.201997 103.702497,250.770547 103.593923,251.447281 C102.943534,252.235729 102.095684,252.760044 101.053941,253.025049 L101.053941,253.025049 L100.954,253.05 L98.5883682,248.484681 C97.4376613,246.264092 96.4863125,245.493488 96.0336649,245.13147 L95.9817601,245.089922 C94.0753674,243.49497 94.6404282,240.699598 94.6892231,238.367427 L94.6892231,238.367427 L94.7041663,237.718629 C94.7325877,236.61389 94.7532063,235.780604 94.7572287,235.028873 L94.7573552,234.537717 L94.7573552,234.537717 L94.7553934,234.297293 L94.5394231,214.838754 L94.3867175,194.600913 L94.1470591,175.377828 L93.9698826,155.737836 L93.7811752,135.771526 L93.6983593,118.087243 L93.451077,96.0541006 L93.3364587,86.0506205 L90.6423949,84.6771572 C90.1450169,84.4235884 89.7277454,84.0357145 89.4373167,83.5619013 C89.1586163,83.1072219 89,82.5719806 89,82 L89,82 L89,64 C89,63.1715729 89.3357864,62.4215729 89.8786797,61.8786797 C90.4215729,61.3357864 91.1715729,61 92,61 L92,61 Z" id="Combined-Shape" stroke="#000000" stroke-width="10" fill-rule="nonzero" transform="translate(96.160223, 185.182690) scale(-1, 1) translate(-96.160223, -185.182690) "></path>
    </g>
</svg>