<?xml version="1.0" encoding="UTF-8"?>
<svg width="1409px" height="756px" viewBox="0 0 1409 756" version="1.1" xmlns="http://www.w3.org/2000/svg" xmlns:xlink="http://www.w3.org/1999/xlink">
    <title>unplugged-cable</title>
    <g id="unplugged-cable" stroke="none" stroke-width="1" fill="none" fill-rule="evenodd">
        <g id="Pasted-20251110-112807-2" transform="translate(1.000000, 278.021604)" fill-rule="nonzero">
            <g id="Pasted-20251110-112807">
                <path d="M181.03,144.788396 C183.523333,144.82173 185.623333,144.465063 187.33,143.718396 L294.32,143.028396 C295.143247,143.022558 295.912518,143.437361 296.36,144.128396 C302.3,153.248396 312.12,156.608396 322.88,157.298396 C333.513333,157.97173 340.176667,158.45173 342.87,158.738396 C352.7,159.778396 363.44,159.878396 373.43,161.348396 C377.823333,162.00173 381.653333,163.43173 384.92,165.638396 C388.9,168.328396 393.04,175.388396 395.83,178.198396 C395.840252,178.183614 396.040898,178.563097 396.29,179.068396 C396.416667,179.335063 396.516667,179.51173 396.59,179.598396 C403.723333,188.005063 412.113333,193.215063 421.76,195.228396 C426.533333,196.228396 432.623333,196.965063 440.03,197.438396 C463.11,198.925063 486.436667,199.585063 510.01,199.418396 C517.69,199.37173 531.986667,199.128396 552.9,198.688396 C558.47,198.568396 565.67,197.858396 572.37,197.878396 C573.836667,197.885063 576.436667,197.77173 580.17,197.538396 C586.67,197.138396 592.533333,196.91173 597.76,196.858396 C600.786667,196.83173 604.183333,196.50173 607.95,195.868396 C616.303333,194.475063 622.256667,190.038396 625.81,182.558396 C626.683333,180.73173 627.363333,179.435063 627.85,178.668396 C628.021921,178.403866 628.238723,178.173514 628.49,177.988396 L636.07,172.558396 C636.673612,172.12318 637.399853,171.895133 638.14,171.908396 C660.52,172.22173 683.636667,172.178396 707.49,171.778396 C711.87,171.698396 716.453333,170.84173 721.24,169.208396 C733.46,165.028396 739.9,152.798396 740.72,140.478396 C741.24,132.618396 741.483333,123.285063 741.45,112.478396 C741.376667,85.8583962 741.156667,68.4417296 740.79,60.2283962 C740.583333,55.6617296 739.406667,50.9650629 737.26,46.1383962 C731,32.0883962 718.16,27.5983962 703.83,27.2683962 C681.81,26.7550629 659.5,26.8083962 636.9,27.4283962 C636.164952,27.4475963 635.448115,27.2027362 634.88,26.7383962 C632.19,24.5783962 628.45,22.7383962 626.85,19.3583962 C621.53,8.11839623 611.8,3.54839623 599.83,3.14839623 C557.816667,1.75506289 516.303333,1.34172956 475.29,1.90839623 C461.736667,2.09506289 447.893333,2.63506289 433.76,3.52839623 C418.18,4.51839623 405.17,8.40839623 395.63,21.6283962 C389.74,29.7983962 386.47,36.3183962 376.22,38.1383962 C373.373333,38.6383962 370.55,38.9417296 367.75,39.0483962 C354.856667,39.5283962 340.193333,40.4317296 323.76,41.7583962 C312.57,42.6683962 302.24,45.7083962 296.33,56.0383962 C295.798619,56.9633265 294.806554,57.5263904 293.74,57.5083962 L275.03,57.1183962 C275.176667,57.0450629 275.266667,56.9383962 275.3,56.7983962 C275.319069,56.7272349 275.308231,56.6513718 275.27,56.5883962 C275.163333,56.4417296 275.003333,56.2950629 274.79,56.1483962 L293.4,56.1083962 C294.287096,56.1081433 295.11429,55.6607065 295.6,54.9183962 C302.47,44.5283962 312.75,41.1083962 324.82,40.0983962 C333.373333,39.3783962 346.516667,38.5883962 364.25,37.7283962 C366.183333,37.6283962 369.76,37.2783962 374.98,36.6783962 C382.42,35.8183962 386.83,32.0783962 391.14,25.6983962 C394.97,20.0383962 398.34,15.4183962 403.13,11.6083962 C410.33,5.87839623 420.44,2.97839623 429.51,2.23839623 C448.53,0.678396226 468.18,0.688396226 486.25,0.208396226 C498.243333,-0.104937107 513.33,-0.0649371069 531.51,0.328396226 C549.723333,0.715062893 560.89,0.905062893 565.01,0.898396226 C584.05,0.878396226 595.21,0.958396226 598.49,1.13839623 C608.24,1.67839623 617.24,3.89839623 623.89,11.5783962 C624.43,12.1983962 625.946667,14.6483962 628.44,18.9283962 C629.6,20.9283962 631.666667,22.6483962 634.64,24.0883962 C636.22,24.8550629 638.876667,25.2050629 642.61,25.1383962 C652.07,24.9850629 665.196667,24.9617296 681.99,25.0683962 C691.07,25.1283962 701.77,25.7183962 708.47,26.0683962 C711.183333,26.2083962 714.733333,26.9050629 719.12,28.1583962 C731.23,31.6283962 738.85,41.9283962 741.5,53.9983962 C742.413333,58.1717296 742.91,62.8317296 742.99,67.9783962 C743.45,96.6650629 743.53,118.245063 743.23,132.718396 C742.85,150.708396 737.12,166.578396 718.42,171.788396 C710.89,173.888396 703.03,173.888396 693,173.908396 C676.866667,173.935063 660.69,173.92173 644.47,173.868396 C640.696667,173.855063 637.953333,174.258396 636.24,175.078396 C633.613333,176.33173 631.336667,177.988396 629.41,180.048396 C629.157665,180.314026 628.939338,180.609608 628.76,180.928396 C626.846667,184.315063 625.433333,186.585063 624.52,187.738396 C615.8,198.788396 602.11,198.988396 589.25,199.228396 C568.043333,199.62173 546.626667,200.098396 525,200.658396 C518.17,200.838396 510.78,200.488396 505,200.578396 C487.353333,200.858396 466.526667,200.44173 442.52,199.328396 C423.59,198.448396 407.86,196.108396 395.5,180.718396 C393.62,178.378396 391.676667,175.835063 389.67,173.088396 C383.67,164.888396 374.03,162.848396 364.24,162.048396 C349.84,160.875063 336.35,159.858396 323.77,158.998396 C313.03,158.268396 302.1,154.378396 295.62,145.598396 C295.073085,144.856241 294.204465,144.418219 293.28,144.418396 L181.03,144.788396 Z" id="Path" fill="#C6C6C6"></path>
                <path d="M1168.03,56.2883962 C1170.89667,57.1683962 1174.07,57.5550629 1177.55,57.4483962 L1142.56,57.5584362 C1141.63774,57.5636326 1140.78938,57.0546194 1140.36,56.2383962 C1135.7,47.3883962 1124.86,42.4283962 1115.17,41.4683962 C1098.49667,39.8150629 1079.78667,38.9083962 1059.04,38.7483962 C1051.44,38.6883962 1045.59333,35.6950629 1041.5,29.7683962 C1038.94,26.0617296 1037.05333,23.4283962 1035.84,21.8683962 C1029.03333,13.0950629 1020.20667,7.76506289 1009.36,5.87839623 C1004.54,5.03839623 998.413333,4.53172956 990.98,4.35839623 C967.566667,3.81172956 950.16,3.40839623 938.76,3.14839623 C919.31,2.70839623 888.83,3.80839623 863.08,3.84839623 C852.84,3.86172956 843.576667,4.10172956 835.29,4.56839623 C824.28,5.17839623 814.88,9.50839623 809.76,19.4383962 C808.57,21.7583962 804.28,22.6983962 802.43,23.8383962 C799.97,25.3517296 797.92,27.2450629 796.28,29.5183962 C792.893333,34.1983962 790.856667,39.7450629 790.17,46.1583962 C790.003333,45.2583962 789.686667,44.9183962 789.22,45.1383962 C790.166667,33.1717296 795.986667,24.8550629 806.68,20.1883962 C808.34,19.4683962 810.22,15.3983962 811.36,14.0883962 C820.84,3.18839623 833.76,2.60839623 847.25,2.41839623 C876.283333,2.00506289 914.343333,1.91172956 961.43,2.13839623 C973.73,2.19839623 985.753333,2.50172956 997.5,3.04839623 C1002.8,3.29506289 1007.99333,3.98839623 1013.08,5.12839623 C1022.86667,7.32172956 1030.68,12.2483962 1036.52,19.9083962 C1036.64,20.0683962 1038.52333,22.8650629 1042.17,28.2983962 C1045.43667,33.1783962 1050.21667,35.9850629 1056.51,36.7183962 C1060.82333,37.2250629 1067.84,37.5850629 1077.56,37.7983962 C1091.53,38.0983962 1102.64,38.7183962 1115.3,39.9183962 C1125.45,40.8883962 1136.37,45.7683962 1141.27,55.0183962 C1141.65722,55.7441878 1142.41063,56.1977685 1143.23,56.1983962 L1168.03,56.2883962 Z" id="Path" fill="#C6C6C6"></path>
                <path d="M0,123.258396 L0,115.118396 C19.06,115.345063 38.1166667,115.59173 57.17,115.858396 C77.35,116.145063 96.4066667,116.298396 114.34,116.318396 C167.1,116.385063 214.16,116.35173 255.52,116.218396 C274.24,116.158396 291.11,114.858396 308.88,115.378396 C309.198918,115.389319 309.508459,115.269507 309.736915,115.046716 C309.96537,114.823924 310.092914,114.517487 310.09,114.198396 L310.03,108.048396 L310.09,85.9883962 C310.09,85.2428118 309.485584,84.6383962 308.74,84.6383962 C296.946667,84.6583962 285.2,84.6617296 273.5,84.6483962 C232.273333,84.5950629 164.026667,84.4817296 68.76,84.3083962 C64.9666667,84.3017296 61.6833333,84.2017296 58.91,84.0083962 C53.6433333,83.6417296 50.3633333,83.4517296 49.07,83.4383962 C32.71,83.2717296 16.3533333,83.2617296 0,83.4083962 L0,76.3483962 C86.54,76.3750629 159.706667,76.5517296 219.5,76.8783962 C226.746667,76.9183962 236.08,77.1350629 247.5,77.5283962 C270.01,78.3083962 289.58,78.2183962 309.32,78.3783962 C309.613421,78.3812997 309.895363,78.2635797 310.100968,78.0523164 C310.306572,77.8410531 310.418138,77.5544353 310.41,77.2583962 C310.343333,74.3983962 310.673333,71.6183962 311.4,68.9183962 C312.94,63.2383962 316.53,62.4083962 322.35,61.9783962 C338.65,60.7783962 354.556667,59.8417296 370.07,59.1683962 C377.296667,58.8483962 382.686667,58.0950629 386.24,56.9083962 C391.68,55.0883962 396.566667,51.8783962 400.9,47.2783962 C402.393333,45.6917296 404.506667,42.7617296 407.24,38.4883962 C409.453333,35.0283962 412.3,31.7017296 415.78,28.5083962 C417.086667,27.3083962 418.836667,26.3950629 421.03,25.7683962 C424.37,24.8083962 429.903333,24.1717296 437.63,23.8583962 C483.023333,22.0450629 528.48,21.8917296 574,23.3983962 C580.793333,23.6250629 590.63,23.6283962 603.51,23.4083962 C607.54,23.3383962 608.79,26.6583962 608.65,30.5283962 C608.536667,33.8683962 608.63,36.6983962 608.93,39.0183962 C609.15,40.6783962 610.086667,41.5317296 611.74,41.5783962 C612.433333,41.5983962 615.37,41.6383962 620.55,41.6983962 C621.349469,41.7046454 622.087122,42.1343095 622.49,42.8283962 L624.39,46.1183962 C624.901345,47.0128992 625.85983,47.5573188 626.89,47.5383962 C649.17,47.2283962 660.72,46.8583962 680.55,47.3183962 C688.696667,47.5050629 697.776667,47.5817296 707.79,47.5483962 C712.25,47.5283962 713.72,48.6083962 716.73,51.5483962 C719.603333,54.3617296 721.063333,57.7583962 721.11,61.7383962 C721.363333,81.7250629 721.42,106.585063 721.28,136.318396 C721.26,140.005063 720.97,142.575063 720.41,144.028396 C719.05,147.578396 715.72,151.278396 711.63,151.378396 C684.31,152.038396 658.03,151.878396 626.23,151.748396 C625.82137,151.742058 625.4391,151.959951 625.23,152.318396 L623.06,156.078396 C622.59231,156.894689 621.739791,157.415254 620.8,157.458396 C615.58,157.698396 612.69,157.538396 610.13,158.488396 C609.529652,158.712142 609.120483,159.27475 609.09,159.918396 C609.036667,161.278396 609.103333,164.018396 609.29,168.138396 C609.47,171.888396 608.58,174.598396 605.76,176.448396 C605.360985,176.71008 604.896996,176.855509 604.42,176.868396 C596.226667,177.02173 587.09,177.178396 577.01,177.338396 C575.67,177.358396 574.273333,177.398396 572.82,177.458396 C534.046667,179.058396 494.273333,179.255063 453.5,178.048396 C449.1,177.915063 441.683333,177.48173 431.25,176.748396 C427.43,176.478396 421.18,175.348396 417.75,172.758396 C411.62,168.128396 408.26,162.678396 403.26,155.488396 C400.56,151.598396 393.55,146.198396 387.84,144.388396 C386.246667,143.88173 383.986667,142.94173 381.06,141.568396 C380.709666,141.403236 380.333242,141.304891 379.95,141.278396 C351.243333,139.23173 330.976667,137.59173 319.15,136.358396 C314.48,135.868396 310.85,132.458396 310.62,127.588396 C310.56,126.375063 310.46,124.87173 310.32,123.078396 C310.28389,122.703116 309.971868,122.417097 309.6,122.418396 L0,123.258396 Z M317.81,117.188396 C317.57,119.90173 317.633333,122.74173 318,125.708396 C318.57,130.298396 322.99,130.908396 326.96,130.868396 C329.39,130.848396 331.87,130.918396 331.96,128.468396 C332.086667,124.955063 332.156667,121.44173 332.17,117.928396 C332.13,113.368396 332.43,106.158396 337.51,104.028396 C337.935753,103.854058 338.407287,103.836331 338.84,103.978396 C340.72,104.598396 342.27,105.56173 343.49,106.868396 C345.61,109.128396 345.03,115.768396 344.76,118.928396 C344.433333,124.355063 344.506667,127.955063 344.98,129.728396 C345.893333,133.188396 348.006667,134.298396 351.32,133.058396 C356.66,131.068396 355.68,123.678396 355.47,119.048396 L355.66,108.518396 C355.678534,107.580849 356.141492,106.703081 356.91,106.148396 L357.87,105.458396 C358.331267,105.12831 358.937294,105.080494 359.44462,105.334157 C359.951946,105.587819 360.277309,106.101331 360.29,106.668396 L360.59,119.678396 L360.81,130.498396 C360.853698,132.677767 362.654944,134.41197 364.84,134.378396 L367.03,134.338396 C369.088577,134.305622 370.740166,132.631774 370.74,130.578396 L370.77,120.008396 C370.76,116.878396 370.94,101.478396 378.5,106.758396 C380.4,108.078396 381.426667,109.90173 381.58,112.228396 C381.793333,115.38173 381.963333,118.295063 382.09,120.968396 L382.16,133.188396 C382.166704,134.206598 382.871196,135.08514 383.86,135.308396 C387.12,136.048396 390.48,136.898396 393.55,138.488396 C401.443333,142.595063 407.673333,147.89173 412.24,154.378396 C417.23,161.448396 420.22,168.128396 429.51,168.678396 C437.8,169.168396 446.64,169.868396 454.67,170.078396 C490.61,171.025063 528.553333,171.14173 568.5,170.428396 C583.48,170.155063 593.383333,169.988396 598.21,169.928396 C600.13,169.908396 601.22,169.098396 601.32,167.048396 C601.453333,164.428396 601.46,161.855063 601.34,159.328396 C600.966667,149.635063 600.76,141.60173 600.72,135.228396 C600.6,114.42173 600.57,86.3383962 600.63,50.9783962 L600.65,37.4783962 L600.64,32.5783962 C600.634856,31.6864097 599.92174,30.9600057 599.03,30.9383962 C578.35,30.4783962 560.76,29.7583962 540.65,29.7583962 C521.323333,29.7583962 497.443333,29.7450629 469.01,29.7182872 C456.87,29.7083962 445.68,30.3883962 432.05,31.0183962 C425.93,31.2983962 421.3,33.6917296 418.16,38.1983962 C413.873333,44.3450629 409.876667,49.4050629 406.17,53.3783962 C400.42,59.5183962 391.95,63.0083962 383.76,64.8683962 C382.785382,65.0909086 382.100648,65.963527 382.12,66.9583962 C382.206667,72.0250629 382.256667,77.8817296 382.27,84.5283962 C382.28,88.7583962 381.48,90.6583962 378.55,93.1883962 C375.92,95.4583962 372.72,93.3283962 371.96,90.7283962 C370.21,84.8083962 371.45,73.9883962 371.32,69.7883962 C371.276875,68.3276309 370.29449,67.0622549 368.89,66.6583962 C368.216667,66.4583962 366.916667,66.3817296 364.99,66.4283962 C362.24,66.4983962 360.76,67.8283962 360.73,70.5083962 C360.676667,75.0283962 360.98,81.2050629 361.64,89.0383962 C361.8,90.8850629 361.543333,92.4850629 360.87,93.8383962 C360.456667,94.6650629 360.046667,95.1550629 359.64,95.3083962 C358.339945,95.7789747 356.84053,95.0895881 356.16,93.7083962 C355.633333,92.6417296 355.363333,91.1383962 355.35,89.1983962 C355.316667,83.1117296 355.356667,77.0417296 355.47,70.9883962 C355.56,66.4283962 349.11,67.1583962 346.35,67.7883962 C345.320738,68.0148837 344.600872,68.9452363 344.64,69.9983962 L345.34,89.2283962 C345.346681,89.4660821 345.3059,89.7039678 345.22,89.9283962 C344.326667,92.3283962 342.92,94.1950629 341,95.5283962 C337.12,98.2283962 333.35,92.2683962 332.24,89.2183962 C331.686667,87.6983962 331.453333,85.4983962 331.54,82.6183962 C331.606667,80.3983962 331.63,76.8350629 331.61,71.9283962 C331.607414,71.2733612 331.342629,70.6466398 330.874772,70.1881776 C330.406916,69.7297155 329.774953,69.4776966 329.12,69.4883962 L321.42,69.6083962 C321.141862,69.6146738 320.874368,69.7132242 320.66,69.8883962 C318.606667,71.5617296 317.623333,73.8450629 317.71,76.7383962 C318.116667,90.0783962 318.15,103.56173 317.81,117.188396 Z M618.3359,51.6185962 C618.334178,50.6240339 617.937437,49.6708907 617.232956,48.968848 C616.528475,48.2668052 615.573962,47.8733708 614.5794,47.8750906 L610.7594,47.8817962 C609.76482,47.8835186 608.811662,48.2802733 608.109616,48.9847757 C607.407571,49.6892781 607.014148,50.6438166 607.015894,51.6383962 L607.1841,147.998196 C607.185822,148.992759 607.582563,149.945902 608.287044,150.647945 C608.991525,151.349987 609.946038,151.743422 610.9406,151.741702 L614.7606,151.734996 C615.75518,151.733274 616.708338,151.336519 617.410384,150.632017 C618.112429,149.927514 618.505852,148.972976 618.504106,147.978396 L618.3359,51.6185962 Z M678.7,54.0083962 C662.053333,54.1617296 645.403333,54.1250629 628.75,53.8983962 C627.25,53.8783962 625.96,54.0383962 624.88,54.3783962 C624.101921,54.6206471 623.573995,55.3435001 623.579949,56.1583962 L623.76,135.668396 C623.66,137.98173 623.64,140.418396 623.7,142.978396 C623.746667,145.07173 624.706667,146.108396 626.58,146.088396 C647.66,145.835063 661.133333,145.75173 667,145.838396 C684.94,146.088396 696.19,146.578396 704.78,145.918396 C705.545055,145.860241 706.132421,145.220275 706.12,144.458396 L705.98,130.268396 C705.5,127.778396 705.03,125.658396 705,123.178396 C704.733333,101.965063 704.716667,83.4817296 704.95,67.7283962 C704.996667,64.5817296 705.546667,61.2650629 706.6,57.7783962 C707.22,55.1183962 706.59,53.3417296 704.71,52.4483962 C704.494475,52.3437752 704.259492,52.2988521 704.03,52.3183962 L678.7,54.0083962 Z M711.34,141.748396 C711.340602,142.468322 711.786986,143.112626 712.460799,143.36614 C713.134612,143.619654 713.894996,143.429381 714.37,142.888396 L715.69,141.378396 C715.963213,141.061667 716.11242,140.656675 716.11,140.238396 L716.2,60.7283962 C716.199328,60.3040746 716.042735,59.8947978 715.76,59.5783962 L714.46,58.1083962 C713.983793,57.5660205 713.220903,57.3762835 712.546105,57.6323948 C711.871307,57.8885062 711.426421,58.53664 711.43,59.2583962 L711.34,141.748396 Z M336.9067,69.8367109 C336.654965,69.8473508 336.456027,70.8711766 336.35365,72.683042 C336.251274,74.4949075 336.253846,76.946393 336.3608,79.4981962 C336.467756,82.0501182 336.670343,84.493321 336.923989,86.2902781 C337.177635,88.0872353 337.461561,89.0907342 337.7133,89.0800815 C337.965035,89.0694416 338.163973,88.0456159 338.26635,86.2337504 C338.368726,84.421885 338.366154,81.9703995 338.2592,79.4185962 C338.152244,76.8666742 337.949657,74.4234714 337.696011,72.6265143 C337.442365,70.8295572 337.158439,69.8260582 336.9067,69.8367109 L336.9067,69.8367109 Z M339.2867,112.352496 C339.282407,112.044871 339.156084,111.75155 338.935522,111.537064 C338.71496,111.322578 338.418226,111.204496 338.1106,111.208683 L338.0506,111.209696 C337.410041,111.218636 336.898001,111.745137 336.9069,112.385696 L337.1133,127.164296 C337.117593,127.471922 337.243916,127.765242 337.464478,127.979728 C337.68504,128.194215 337.981774,128.312296 338.2894,128.30811 L338.3494,128.307096 C338.989959,128.298156 339.501999,127.771655 339.4931,127.131096 L339.2867,112.352496 Z" id="Shape" fill="#010101"></path>
                <path d="M1408,76.3183962 L1408,83.4883962 C1398.52667,83.2417296 1389.06,83.2883962 1379.6,83.6283962 C1365.40667,84.1283962 1356.16667,84.3783962 1351.88,84.3783962 C1309.74,84.3650629 1264.06,84.3483962 1214.84,84.3283962 C1210.67,84.3283962 1206.48,85.5983962 1202.7,85.5883962 C1166.98667,85.4950629 1147.77333,85.4850629 1145.06,85.5583962 C1139.27,85.7183962 1133.13,84.1683962 1126.88,84.4783962 C1125.76001,84.5365506 1124.87907,85.4569331 1124.87,86.5783962 L1124.68,109.198396 C1124.25333,111.145063 1124.3,113.15173 1124.82,115.218396 C1124.95342,115.763392 1125.44445,116.147141 1126.01,116.148396 L1408,115.518396 L1408,123.328396 L1126.58,122.468396 C1125.85318,122.469946 1125.24701,123.019829 1125.18,123.738396 C1124.9,126.518396 1124.94,130.418396 1124.05,132.388396 C1121.56,137.878396 1116.92,138.988396 1111.25,139.288396 C1095.57667,140.108396 1077.4,140.868396 1056.72,141.568396 C1049.81,141.798396 1045.11,142.708396 1039.3,145.048396 C1032.63,147.738396 1027.05,155.618396 1023.46,161.558396 C1020.44667,166.565063 1016.52333,170.585063 1011.69,173.618396 C1010.47,174.385063 1007.82333,174.93173 1003.75,175.258396 C998.603333,175.678396 993.46,175.998396 988.32,176.218396 C960.826667,177.378396 933.306667,177.795063 905.76,177.468396 C870.06,177.048396 848.323333,176.758396 840.55,176.598396 C837.73,176.538396 835.173333,176.368396 832.88,176.088396 C828.82,175.588396 826.4,170.228396 826.28,166.958396 C826.18,164.17173 826.106667,162.36173 826.06,161.528396 C826.003033,160.491757 825.162705,159.673199 824.13,159.648396 C823.07,159.62173 819.953333,159.575063 814.78,159.508396 C810.19,159.458396 810.24,154.918396 810.27,150.748396 C810.61,108.10173 810.533333,73.0117296 810.038379,45.4783962 C809.97,41.3583962 812.17,40.4383962 815.98,40.5883962 C819.326667,40.7150629 822.033333,40.7283962 824.1,40.6283962 C824.780171,40.60141 825.315938,40.0390769 825.31,39.3583962 C825.31,35.0083962 825.35,25.5983962 831.73,25.1683962 C833.383333,25.0550629 836.473333,24.9683962 841,24.9083962 C863.633333,24.6017296 887.05,24.3950629 911.25,24.2883962 C944.34,24.1383962 973.87,24.2483962 1001.44,25.2583962 C1004.66667,25.3783962 1007.64333,25.8317296 1010.37,26.6183962 C1016.34,28.3583962 1022.19,36.4383962 1025.92,41.8883962 C1029.64,47.3217296 1034.24333,51.9017296 1039.73,55.6283962 C1043.87,58.4483962 1050.78,59.0983962 1055.99,59.2183962 C1069.90333,59.5517296 1084.29667,60.2050629 1099.17,61.1783962 C1101.33,61.3183962 1103.72,61.3983962 1106.34,61.4183962 C1112.4,61.4683962 1117.57,61.4583962 1121.46,64.7683962 C1124.19,67.0983962 1124.38,73.1183962 1124.72,77.2383962 C1124.78828,78.0396815 1125.46116,78.6513923 1126.26,78.6383962 C1145.12667,78.4650629 1165.62333,78.4050629 1187.75,78.4583962 C1206.83,78.5083962 1228.45,77.5783962 1245.39,77.3683962 C1299.59,76.7217296 1353.79333,76.3717296 1408,76.3183962 Z M831.93,41.5083962 L832.25,51.7683962 L832.23,147.738396 C832.196667,153.685063 832.146667,159.595063 832.08,165.468396 C832.06,167.395063 832.95,168.368396 834.75,168.388396 C886.843333,168.928396 937.593333,169.065063 987,168.798396 C989.273333,168.79173 994.493333,168.458396 1002.66,167.798396 C1007.08,167.438396 1010.39,166.228396 1012.64,163.108396 C1018.56,154.90173 1022.03,150.20173 1023.05,149.008396 C1030.82333,139.88173 1040.95667,135.225063 1053.45,135.038396 C1054.32589,135.027455 1055.03014,134.309828 1055.03,133.428396 L1055.03,121.168396 C1055.16,116.058396 1054.06,109.608396 1059.27,106.488396 C1059.55567,106.319384 1059.88842,106.245829 1060.22,106.278396 C1063.06,106.538396 1064.75,107.948396 1065.29,110.508396 C1065.90333,113.388396 1066.1,117.285063 1065.88,122.198396 C1065.96,124.865063 1065.91667,127.538396 1065.75,130.218396 C1065.58,132.868396 1067.63,134.848396 1070.46,134.698396 C1072.88,134.568396 1075.46,134.438396 1075.34,131.728396 C1075.15333,127.66173 1075.01,123.965063 1074.91,120.638396 C1074.79,116.47173 1074.75333,112.69173 1074.8,109.298396 C1074.81333,108.01173 1075.14,106.915063 1075.78,106.008396 C1076.27196,105.320951 1077.21526,105.133164 1077.94,105.578396 C1079.72,106.67173 1080.62333,108.218396 1080.65,110.218396 C1080.69667,113.658396 1080.73667,117.048396 1080.77,120.388396 C1080.67667,122.68173 1080.64667,124.945063 1080.68,127.178396 C1080.73,130.198396 1080.39,132.198396 1082.81,133.618396 C1084.46,134.578396 1088.17,133.978396 1090.03,133.518396 C1090.69379,133.354332 1091.16262,132.762123 1091.17,132.078396 L1091.26,120.468396 C1091.00667,116.128396 1090.98667,112.878396 1091.2,110.718396 C1091.52,107.428396 1094.99,103.238396 1098.72,104.868396 C1103.55,106.968396 1104.02,114.328396 1103.72,118.998396 L1103.74,132.188396 C1103.74111,132.732234 1104.11662,133.199532 1104.64,133.308396 C1109.58,134.378396 1116.89,133.038396 1118.01,126.718396 C1118.08333,126.33173 1118.14,124.34173 1118.18,120.748396 C1118.2072,118.075063 1118.19,115.40173 1118.13,112.728396 L1118.06,88.1783962 C1118.30667,81.2183962 1118.24333,76.4583962 1117.87,73.8983962 C1116.95,67.5883962 1109.56,68.1083962 1105.06,68.3983962 C1104.3844,68.4353851 1103.85427,68.9917942 1103.85,69.6683962 L1103.63,86.9283962 C1103.37,91.0883962 1101.26,95.9583962 1096.38,95.9183962 C1096.05044,95.9184224 1095.72303,95.8468022 1095.42,95.7083962 C1092.56,94.4150629 1091.04,92.1917296 1090.86,89.0383962 C1091.28,82.2450629 1091.21,75.5650629 1090.65,68.9983962 C1090.58752,68.2725233 1090.01856,67.691012 1089.29,67.6083962 C1086.77,67.3283962 1082.57,66.6683962 1081.14,68.8883962 C1080.8,69.4217296 1080.61333,70.4983962 1080.58,72.1183962 C1080.48667,77.1317296 1080.42,82.2050629 1080.38,87.3383962 C1080.39,89.5783962 1080.62,93.1383962 1078.64,94.7183962 C1077.88903,95.3229701 1076.82927,95.2702021 1076.23,94.5983962 C1075.49,93.7650629 1075.12,92.6417296 1075.12,91.2283962 C1075.13333,86.8483962 1075.19,81.0983962 1075.29,73.9783962 C1075.31667,71.8250629 1074.97,69.8117296 1074.25,67.9383962 C1074.07571,67.4816894 1073.63042,67.1795281 1073.13,67.1783962 L1068.48,67.1783962 C1067.24041,67.1761758 1066.21416,68.1410245 1066.14,69.3783962 C1065.92667,73.0050629 1065.76667,78.9450629 1065.66,87.1983962 C1065.6,92.1983962 1061.75,98.0083962 1056.9,92.1383962 C1055.17333,90.0450629 1054.48,87.4983962 1054.82,84.4983962 L1054.87,72.9383962 L1054.61,67.0183962 C1054.59921,66.6948611 1054.33371,66.4382163 1054.01,66.4383962 C1049.29,66.4183962 1044.85667,65.6883962 1040.71,64.2483962 C1032.48,61.3783962 1026.85,56.4183962 1021.35,48.7283962 C1020.98333,48.2083962 1018.70333,45.2017296 1014.51,39.7083962 C1011.73667,36.0683962 1008.17667,33.8917296 1003.83,33.1783962 C999.256667,32.4317296 995.07,31.9750629 991.27,31.8083962 C971.23,30.9417296 943.473333,30.5717296 908,30.6983962 C881.65,30.7883962 860.09,31.8583962 837.25,31.8683962 C834.63,31.8683962 832.37,32.4283962 832.07,35.2383962 C831.883333,36.8983962 831.836667,38.9883962 831.93,41.5083962 Z M826.8,50.9383962 C826.8,49.1269022 825.331494,47.6583962 823.52,47.6583962 L819.84,47.6583962 C818.97009,47.6583962 818.135809,48.0039667 817.52069,48.619086 C816.90557,49.2342053 816.56,50.0684861 816.56,50.9383962 L816.56,150.218396 C816.56,151.088306 816.90557,151.922587 817.52069,152.537706 C818.135809,153.152826 818.97009,153.498396 819.84,153.498396 L823.52,153.498396 C825.331494,153.498396 826.8,152.02989 826.8,150.218396 L826.8,50.9383962 Z M1096.8,88.9683962 L1098.46,88.9983962 C1098.69363,88.9983962 1098.88457,88.8119644 1098.89,88.5783962 L1098.97,84.6283962 C1099.04478,80.7263483 1099.00458,76.9831222 1098.85826,74.2237839 C1098.71195,71.4644455 1098.47153,69.9155133 1098.19,69.9183962 L1097.79,69.9083962 C1097.20534,69.9114978 1096.60589,76.4741693 1096.45,84.5783962 L1096.38,88.5283962 C1096.37732,88.6424481 1096.42007,88.7528915 1096.49884,88.8354143 C1096.57761,88.9179372 1096.68595,88.9657747 1096.8,88.9683962 Z M1099.1272,113.405996 C1099.12659,113.050606 1098.98483,112.710014 1098.7331,112.459146 C1098.48137,112.208279 1098.14029,112.067686 1097.7849,112.068294 L1097.7049,112.068496 C1097.34951,112.069106 1097.00892,112.210869 1096.75805,112.462599 C1096.50718,112.714329 1096.36659,113.055406 1096.3672,113.410796 L1096.3928,128.090796 C1096.39341,128.446186 1096.53517,128.786779 1096.7869,129.037646 C1097.03863,129.288514 1097.37971,129.429107 1097.7351,129.428498 L1097.8151,129.428296 C1098.17049,129.427687 1098.51108,129.285924 1098.76195,129.034194 C1099.01282,128.782463 1099.15341,128.441386 1099.1528,128.085996 L1099.1272,113.405996 Z" id="Shape" fill="#010101"></path>
                <path d="M600.65,37.4783962 C596.97,37.2250629 593.26,37.1650629 589.52,37.2983962 C584.133333,37.4917296 580.423333,37.5717296 578.39,37.5383962 C557.243333,37.2117296 535.163333,37.4117296 512.15,38.1383962 C486.503333,38.9450629 464.81,40.0450629 447.07,41.4383962 C432.86,42.5483962 423.79,42.8683962 415.94,53.2183962 C413.65,56.2283962 412.72,58.9683962 412.74,62.7983962 C412.743243,63.2555855 412.984612,63.6780079 413.376839,63.9129353 C413.769065,64.1478627 414.255397,64.1613028 414.66,63.9483962 C416.086667,63.1950629 418.226667,61.8117296 421.08,59.7983962 C429.11,54.1583962 437.71,53.4883962 447.38,53.0983962 C460.69,52.5583962 471.7,51.9383962 483.6,51.8683962 C499.08,51.7783962 517.37,51.9883962 534.84,51.4583962 C546.353333,51.1117296 553.423333,50.9883962 556.05,51.0883962 C570.843333,51.6483962 585.703333,51.6117296 600.63,50.9783962 C600.57,86.3383962 600.6,114.42173 600.72,135.228396 C600.76,141.60173 600.966667,149.635063 601.34,159.328396 C599.653333,159.155063 598.04,159.078396 596.5,159.098396 C588.6,159.19173 574.766667,159.548396 555,160.168396 C523.373333,161.16173 493.71,160.845063 466.01,159.218396 C457.3,158.698396 446.33,159.128396 437.06,157.668396 C433.613333,157.128396 430.37,155.795063 427.33,153.668396 C425.73,152.548396 423.533333,149.825063 420.74,145.498396 C417.413333,140.345063 415.27,137.248396 414.31,136.208396 C408.51,129.955063 401.81,125.65173 394.21,123.298396 C390.59,122.17173 386.55,121.395063 382.09,120.968396 C381.963333,118.295063 381.793333,115.38173 381.58,112.228396 C381.426667,109.90173 380.4,108.078396 378.5,106.758396 C370.94,101.478396 370.76,116.878396 370.77,120.008396 L360.59,119.678396 L360.29,106.668396 C360.277309,106.101331 359.951946,105.587819 359.44462,105.334157 C358.937294,105.080494 358.331267,105.12831 357.87,105.458396 L356.91,106.148396 C356.141492,106.703081 355.678534,107.580849 355.66,108.518396 L355.47,119.048396 L344.76,118.928396 C345.03,115.768396 345.61,109.128396 343.49,106.868396 C342.27,105.56173 340.72,104.598396 338.84,103.978396 C338.407287,103.836331 337.935753,103.854058 337.51,104.028396 C332.43,106.158396 332.13,113.368396 332.17,117.928396 C327.27,118.268396 322.483333,118.02173 317.81,117.188396 C318.15,103.56173 318.116667,90.0783962 317.71,76.7383962 C317.623333,73.8450629 318.606667,71.5617296 320.66,69.8883962 C320.874368,69.7132242 321.141862,69.6146738 321.42,69.6083962 L329.12,69.4883962 C329.774953,69.4776966 330.406916,69.7297155 330.874772,70.1881776 C331.342629,70.6466398 331.607414,71.2733612 331.61,71.9283962 C331.63,76.8350629 331.606667,80.3983962 331.54,82.6183962 C331.453333,85.4983962 331.686667,87.6983962 332.24,89.2183962 C333.35,92.2683962 337.12,98.2283962 341,95.5283962 C342.92,94.1950629 344.326667,92.3283962 345.22,89.9283962 C345.3059,89.7039678 345.346681,89.4660821 345.34,89.2283962 L344.64,69.9983962 C344.600872,68.9452363 345.320738,68.0148837 346.35,67.7883962 C349.11,67.1583962 355.56,66.4283962 355.47,70.9883962 C355.356667,77.0417296 355.316667,83.1117296 355.35,89.1983962 C355.363333,91.1383962 355.633333,92.6417296 356.16,93.7083962 C356.84053,95.0895881 358.339945,95.7789747 359.64,95.3083962 C360.046667,95.1550629 360.456667,94.6650629 360.87,93.8383962 C361.543333,92.4850629 361.8,90.8850629 361.64,89.0383962 C360.98,81.2050629 360.676667,75.0283962 360.73,70.5083962 C360.76,67.8283962 362.24,66.4983962 364.99,66.4283962 C366.916667,66.3817296 368.216667,66.4583962 368.89,66.6583962 C370.29449,67.0622549 371.276875,68.3276309 371.32,69.7883962 C371.45,73.9883962 370.21,84.8083962 371.96,90.7283962 C372.72,93.3283962 375.92,95.4583962 378.55,93.1883962 C381.48,90.6583962 382.28,88.7583962 382.27,84.5283962 C382.256667,77.8817296 382.206667,72.0250629 382.12,66.9583962 C382.100648,65.963527 382.785382,65.0909086 383.76,64.8683962 C391.95,63.0083962 400.42,59.5183962 406.17,53.3783962 C409.876667,49.4050629 413.873333,44.3450629 418.16,38.1983962 C421.3,33.6917296 425.93,31.2983962 432.05,31.0183962 C445.68,30.3883962 456.87,29.7083962 469.01,29.7182872 C497.443333,29.7450629 521.323333,29.7583962 540.65,29.7583962 C560.76,29.7583962 578.35,30.4783962 599.03,30.9383962 C599.92174,30.9600057 600.634856,31.6864097 600.64,32.5783962 L600.65,37.4783962 Z M480.17,63.9183962 C474.34,66.3783962 471.76,66.8583962 468.7,70.8983962 C466.186667,74.2317296 464.416667,77.6183962 463.39,81.0583962 C462.81,83.0117296 462.513333,86.8183962 462.5,92.4783962 C462.453333,107.345063 462.45,115.185063 462.49,115.998396 C462.76,121.718396 467.28,131.148396 472.07,134.158396 C477.163333,137.358396 482.723333,139.01173 488.75,139.118396 C515.983333,139.605063 541.833333,139.69173 566.3,139.378396 C570.613333,139.325063 573.5,138.88173 574.96,138.048396 C577.7,136.48173 579.493333,134.06173 580.34,130.788396 C580.406385,130.536105 580.439995,130.277307 580.44,130.018396 C580.513333,115.105063 580.473333,97.3583962 580.32,76.7783962 C580.3,73.4517296 580.043333,71.2917296 579.55,70.2983962 C577.39,65.9583962 572.87,63.2683962 568.26,63.2981479 C526.866667,63.5983962 498.79,63.6817296 484.03,63.5483962 C482.083333,63.5283962 480.796667,63.6517296 480.17,63.9183962 Z" id="Shape" fill="#EEEBE2"></path>
                <path d="M1054.87,72.9383962 C1053.01,71.5583962 1051.38667,70.7617296 1050,70.5483962 C1039.84,69.0083962 1030.28,67.8483962 1023.7,58.6783962 C1017.94,50.6383962 1011.42,44.6083962 1001.47,42.6783962 C995.39,41.5050629 988.076667,40.8883962 979.53,40.8283962 C967.036667,40.7483962 946.36,40.5083962 917.5,40.1083962 C892.62,39.7683962 866.693333,40.0150629 839.72,40.8483962 C838.64,40.8817296 836.043333,41.1017296 831.93,41.5083962 C831.836667,38.9883962 831.883333,36.8983962 832.07,35.2383962 C832.37,32.4283962 834.63,31.8683962 837.25,31.8683962 C860.09,31.8583962 881.65,30.7883962 908,30.6983962 C943.473333,30.5717296 971.23,30.9417296 991.27,31.8083962 C995.07,31.9750629 999.256667,32.4317296 1003.83,33.1783962 C1008.17667,33.8917296 1011.73667,36.0683962 1014.51,39.7083962 C1018.70333,45.2017296 1020.98333,48.2083962 1021.35,48.7283962 C1026.85,56.4183962 1032.48,61.3783962 1040.71,64.2483962 C1044.85667,65.6883962 1049.29,66.4183962 1054.01,66.4383962 C1054.33371,66.4382163 1054.59921,66.6948611 1054.61,67.0183962 L1054.87,72.9383962 Z" id="Path" fill="#EEEBE2"></path>
                <path d="M600.65,37.4783962 L600.63,50.9783962 C585.703333,51.6117296 570.843333,51.6483962 556.05,51.0883962 C553.423333,50.9883962 546.353333,51.1117296 534.84,51.4583962 C517.37,51.9883962 499.08,51.7783962 483.6,51.8683962 C471.7,51.9383962 460.69,52.5583962 447.38,53.0983962 C437.71,53.4883962 429.11,54.1583962 421.08,59.7983962 C418.226667,61.8117296 416.086667,63.1950629 414.66,63.9483962 C414.255397,64.1613028 413.769065,64.1478627 413.376839,63.9129353 C412.984612,63.6780079 412.743243,63.2555855 412.739685,62.7983962 C412.72,58.9683962 413.65,56.2283962 415.94,53.2183962 C423.79,42.8683962 432.86,42.5483962 447.07,41.4383962 C464.81,40.0450629 486.503333,38.9450629 512.15,38.1383962 C535.163333,37.4117296 557.243333,37.2117296 578.39,37.5383962 C580.423333,37.5717296 584.133333,37.4917296 589.52,37.2983962 C593.26,37.1650629 596.97,37.2250629 600.65,37.4783962 Z" id="Path" fill="#F6F7F7"></path>
                <path d="M1054.87,72.9383962 L1054.82,84.4983962 C1039.45,83.2883962 1028.44,76.5683962 1018.19,65.7583962 C1015.46333,62.8783962 1013.26,60.9983962 1011.58,60.1183962 C1006.77,57.5783962 1001.55,56.5383962 996.48,56.1983962 C993.8,56.0183962 987.123333,55.7350629 976.45,55.3483962 C955.4,54.5883962 936.19,54.7883962 893,54.6083962 C882.686667,54.5683962 870.6,54.6617296 856.74,54.8883962 C851.22,54.9817296 845.703333,54.8550629 840.19,54.5083962 C837.296667,54.3217296 834.65,53.4083962 832.25,51.7683962 L831.93,41.5083962 C836.043333,41.1017296 838.64,40.8817296 839.72,40.8483962 C866.693333,40.0150629 892.62,39.7683962 917.5,40.1083962 C946.36,40.5083962 967.036667,40.7483962 979.53,40.8283962 C988.076667,40.8883962 995.39,41.5050629 1001.47,42.6783962 C1011.42,44.6083962 1017.94,50.6383962 1023.7,58.6783962 C1030.28,67.8483962 1039.84,69.0083962 1050,70.5483962 C1051.38667,70.7617296 1053.01,71.5583962 1054.87,72.9383962 Z" id="Path" fill="#F6F7F7"></path>
                <path d="M790.17,46.1583962 L790.1,152.428396 C790.206667,154.92173 789.926667,156.158396 789.26,156.138635 C789.006667,154.33173 788.886667,152.528396 788.9,150.728396 C789.046667,116.808396 789.143333,82.8883962 789.19,48.9683962 C789.19,47.6617296 789.2,46.3850629 789.22,45.1383962 C789.686667,44.9183962 790.003333,45.2583962 790.17,46.1583962 Z" id="Path" fill="#8F908F"></path>
                <rect id="Rectangle" fill="#EEEBE2" transform="translate(612.760000, 99.808396) rotate(-0.100000) translate(-612.760000, -99.808396) " x="607.1" y="47.8783962" width="11.32" height="103.86" rx="3.75"></rect>
                <rect id="Rectangle" fill="#8F908F" x="816.56" y="47.6583962" width="10.24" height="105.84" rx="3.28"></rect>
                <path d="M1054.82,84.4983962 C1054.48,87.4983962 1055.17333,90.0450629 1056.9,92.1383962 C1061.75,98.0083962 1065.6,92.1983962 1065.66,87.1983962 C1065.76667,78.9450629 1065.92667,73.0050629 1066.14,69.3783962 C1066.21416,68.1410245 1067.24041,67.1761758 1068.48,67.1783962 L1073.13,67.1783962 C1073.63042,67.1795281 1074.07571,67.4816894 1074.25,67.9383962 C1074.97,69.8117296 1075.31667,71.8250629 1075.29,73.9783962 C1075.19,81.0983962 1075.13333,86.8483962 1075.12,91.2283962 C1075.12,92.6417296 1075.49,93.7650629 1076.23,94.5983962 C1076.82927,95.2702021 1077.88903,95.3229701 1078.64,94.7183962 C1080.62,93.1383962 1080.39,89.5783962 1080.38,87.3383962 C1083.6,88.0383962 1086.90333,87.9683962 1090.29,87.1283962 C1090.42145,87.0976429 1090.55973,87.1275406 1090.6651,87.2094961 C1090.77047,87.2914517 1090.83126,87.4163882 1090.83,87.5483962 L1090.86,89.0383962 C1091.04,92.1917296 1092.56,94.4150629 1095.42,95.7083962 C1095.72303,95.8468022 1096.05044,95.9184224 1096.38,95.9183962 C1101.26,95.9583962 1103.37,91.0883962 1103.63,86.9283962 C1108.09,88.8083962 1113.31,88.4783962 1118.06,88.1783962 L1118.13,112.728396 L1117.92,119.948396 C1117.90956,120.308489 1117.62009,120.597952 1117.26,120.608396 L1105.73,120.788396 C1105.46368,120.794864 1105.20445,120.717795 1104.99,120.568396 C1104.46333,120.20173 1104.04,119.678396 1103.72,118.998396 C1104.02,114.328396 1103.55,106.968396 1098.72,104.868396 C1094.99,103.238396 1091.52,107.428396 1091.2,110.718396 C1090.98667,112.878396 1091.00667,116.128396 1091.26,120.468396 L1080.77,120.388396 C1080.73667,117.048396 1080.69667,113.658396 1080.65,110.218396 C1080.62333,108.218396 1079.72,106.67173 1077.94,105.578396 C1077.21526,105.133164 1076.27196,105.320951 1075.78,106.008396 C1075.14,106.915063 1074.81333,108.01173 1074.8,109.298396 C1074.75333,112.69173 1074.79,116.47173 1074.91,120.638396 C1072.62333,121.518396 1069.87,121.608396 1066.65,120.908396 C1066.30623,120.834551 1065.96506,121.051654 1065.88,121.398396 C1065.83333,121.618396 1065.83333,121.885063 1065.88,122.198396 C1066.1,117.285063 1065.90333,113.388396 1065.29,110.508396 C1064.75,107.948396 1063.06,106.538396 1060.22,106.278396 C1059.88842,106.245829 1059.55567,106.319384 1059.27,106.488396 C1054.06,109.608396 1055.16,116.058396 1055.03,121.168396 L1051.21,121.118396 C1050.92886,121.111895 1050.65538,121.181132 1050.42,121.318396 C1050.35333,121.358396 1050.27667,121.405063 1050.19,121.458396 C1049.91348,121.636171 1049.60241,121.748977 1049.28,121.788396 C1042.58,122.608396 1037.63,123.495063 1034.43,124.448396 C1027.41,126.558396 1021.75,130.658396 1016.15,135.708396 C1012.58333,138.928396 1009.67333,141.068396 1007.42,142.128396 C1003.59333,143.915063 999.873333,145.048396 996.26,145.528396 C988.933333,146.50173 984.263333,146.97173 982.25,146.938396 C965.24,146.698396 947.31,146.248396 932.27,146.858396 C920.96,147.318396 909.26,147.678396 898.58,147.608396 C883.6,147.515063 868.656667,147.55173 853.75,147.718396 C846.623333,147.798396 839.45,147.805063 832.23,147.738396 L832.25,51.7683962 C834.65,53.4083962 837.296667,54.3217296 840.19,54.5083962 C845.703333,54.8550629 851.22,54.9817296 856.74,54.8883962 C870.6,54.6617296 882.686667,54.5683962 893,54.6083962 C936.19,54.7883962 955.4,54.5883962 976.45,55.3483962 C987.123333,55.7350629 993.8,56.0183962 996.48,56.1983962 C1001.55,56.5383962 1006.77,57.5783962 1011.58,60.1183962 C1013.26,60.9983962 1015.46333,62.8783962 1018.19,65.7583962 C1028.44,76.5683962 1039.45,83.2883962 1054.82,84.4983962 Z" id="Path" fill="#EEEBE2"></path>
                <path d="M706.6,57.7783962 C706.38,56.1517296 705.49,55.3017296 703.93,55.2283962 C695.53,54.8417296 687.12,54.4350629 678.7,54.0083962 L704.03,52.3183962 C704.259492,52.2988521 704.494475,52.3437752 704.71,52.4483962 C706.59,53.3417296 707.22,55.1183962 706.6,57.7783962 Z" id="Path" fill="#8F908F"></path>
                <path d="M274.79,56.1483962 C275.003333,56.2950629 275.163333,56.4417296 275.27,56.5883962 C275.309202,56.6513718 275.319069,56.7272349 275.3,56.7983962 C275.266667,56.9383962 275.176667,57.0450629 275.03,57.1183962 C262.576667,57.0783962 250.123333,56.9583962 237.67,56.7583962 C221.79,56.5050629 209.336667,56.3450629 200.31,56.2783962 C133.69,55.8050629 67.1133333,55.5017296 0.58,55.3683962 C0.397746033,55.3683962 0.25,55.2251273 0.25,55.0483962 L0.25,54.1283962 C0.25,53.9682336 0.384314575,53.8383962 0.55,53.8383962 L274.79,56.1483962 Z" id="Path" fill="#8F908F"></path>
                <path d="M678.7,54.0083962 C687.12,54.4350629 695.53,54.8417296 703.93,55.2283962 C705.49,55.3017296 706.38,56.1517296 706.6,57.7783962 C705.546667,61.2650629 704.996667,64.5817296 704.95,67.7283962 C704.716667,83.4817296 704.733333,101.965063 705,123.178396 C705.03,125.658396 705.5,127.778396 705.98,130.268396 C695.7,129.74173 685.53,129.798396 675.47,130.438396 L675.32,112.898396 C675.314787,112.398003 675.109229,111.920355 674.748851,111.571239 C674.388473,111.222123 673.903018,111.030352 673.4,111.038396 C668.72,111.118396 663.97,111.135063 659.15,111.088396 C657.37,111.075063 656.48,111.958396 656.48,113.738396 C656.473333,119.458396 656.516667,125.205063 656.61,130.978396 C654.436667,130.505063 653.06,130.268396 652.48,130.268396 C645.113333,130.24173 637.71,130.235063 630.27,130.248396 C629.216667,130.248396 628.14,130.598396 627.04,131.298396 C626.773288,131.473958 626.567395,131.725217 626.45,132.018396 C625.776667,133.665063 624.88,134.88173 623.76,135.668396 L623.579949,56.1583962 C623.573995,55.3435001 624.101921,54.6206471 624.88,54.3783962 C625.96,54.0383962 627.25,53.8783962 628.75,53.8983962 C645.403333,54.1250629 662.053333,54.1617296 678.7,54.0083962 Z M674.58,67.1083962 L658.49,67.3183962 C657.448518,67.3293592 656.609999,68.1723384 656.61,69.2083962 L656.61,87.5583962 C656.61,88.580123 657.438273,89.4083962 658.46,89.4083962 L674.09,89.4083962 C674.417956,89.4083962 674.732337,89.2774463 674.963296,89.0446092 C675.194255,88.8117722 675.322666,88.4963417 675.32,88.1683962 L675.13,67.4183962 C683.05,67.6783962 691.31,67.7017296 699.91,67.4883962 C701.063333,67.4617296 701.966667,66.7583962 702.62,65.3783962 C702.864067,64.8626144 702.826115,64.2576285 702.519504,63.7763913 C702.212893,63.2951542 701.680604,63.0051262 701.11,63.0083962 C691.03,63.0550629 682.64,63.2350629 675.94,63.5483962 C672.79,63.6883962 670.68,63.2983962 668.23,63.4983962 C666.13,63.6650629 664.196667,63.6950629 662.43,63.5883962 C653.05,63.0150629 642.253333,63.0017296 630.04,63.5483962 C629.779322,63.5619656 629.524176,63.469899 629.332225,63.2930031 C629.140274,63.1161071 629.02772,62.8693133 629.02,62.6083962 L629.02,62.5883962 C629.014608,62.3691586 629.096189,62.1569076 629.246515,61.999065 C629.396841,61.8412224 629.603385,61.7509426 629.82,61.7483962 L701.2,60.5883962 C701.404567,60.5850489 701.594769,60.482572 701.710086,60.3135727 C701.825403,60.1445734 701.851473,59.9301002 701.78,59.7383962 L701.69,59.5083962 C701.391382,58.6994061 700.612131,58.1691941 699.75,58.1883962 L631.38,59.2883962 C629.616282,59.3185755 628.113367,60.5675355 627.77,62.2883962 L627.62,63.0283962 C627.456539,63.8097174 627.634353,64.6235273 628.108457,65.2639508 C628.582562,65.9043743 629.307544,66.3100664 630.1,66.3783962 C640.726667,67.3250629 651.443333,67.3317296 662.25,66.3983962 C666.496667,66.0317296 670.606667,66.2683962 674.58,67.1083962 Z" id="Shape" fill="#C6C6C6"></path>
                <path d="M1408,54.0983962 L1408,55.4183962 L1326.95,55.6483962 C1327.59,55.6817296 1328.08,55.6317296 1328.42,55.4983962 C1328.51592,55.4694172 1328.578,55.3767075 1328.56827,55.2769792 C1328.55854,55.1772509 1328.47971,55.0982892 1328.38,55.0883962 L1323.93,54.3183962 L1408,54.0983962 Z" id="Path" fill="#C6C6C6"></path>
                <path d="M1323.93,54.3183962 L1328.38,55.0883962 C1328.47971,55.0982892 1328.55854,55.1772509 1328.56928,55.2769792 C1328.578,55.3767075 1328.51592,55.4694172 1328.42,55.4983962 C1328.08,55.6317296 1327.59,55.6817296 1326.95,55.6483962 L1177.55,57.4483962 C1174.07,57.5550629 1170.89667,57.1683962 1168.03,56.2883962 L1323.93,54.3183962 Z" id="Path" fill="#8F908F"></path>
                <path d="M711.34,141.748396 L711.43,59.2583962 C711.426421,58.53664 711.871307,57.8885062 712.546105,57.6323948 C713.220903,57.3762835 713.983793,57.5660205 714.46,58.1083962 L715.76,59.5783962 C716.042735,59.8947978 716.199328,60.3040746 716.2,60.7283962 L716.11,140.238396 C716.11242,140.656675 715.963213,141.061667 715.69,141.378396 L714.37,142.888396 C713.894996,143.429381 713.134612,143.619654 712.460799,143.36614 C711.786986,143.112626 711.340602,142.468322 711.34,141.748396 L711.34,141.748396 Z" id="Path" fill="#8F908F"></path>
                <path d="M675.13,67.4183962 C674.943333,67.3117296 674.76,67.2083962 674.58,67.1083962 C670.606667,66.2683962 666.496667,66.0317296 662.25,66.3983962 C651.443333,67.3317296 640.726667,67.3250629 630.1,66.3783962 C629.307544,66.3100664 628.582562,65.9043743 628.108457,65.2639508 C627.634353,64.6235273 627.456539,63.8097174 627.62,63.0283962 L627.77,62.2883962 C628.113367,60.5675355 629.616282,59.3185755 631.38,59.2883962 L699.75,58.1883962 C700.612131,58.1691941 701.391382,58.6994061 701.69,59.5083962 L701.78,59.7383962 C701.851473,59.9301002 701.825403,60.1445734 701.710086,60.3135727 C701.594769,60.482572 701.404567,60.5850489 701.2,60.5883962 L629.82,61.7483962 C629.603385,61.7509426 629.396841,61.8412224 629.246515,61.999065 C629.096189,62.1569076 629.014608,62.3691586 629.02,62.5883962 L629.02,62.6083962 C629.02772,62.8693133 629.140274,63.1161071 629.332225,63.2930031 C629.524176,63.469899 629.779322,63.5619656 630.04,63.5483962 C642.253333,63.0017296 653.05,63.0150629 662.43,63.5883962 C664.196667,63.6950629 666.13,63.6650629 668.23,63.4983962 C670.68,63.2983962 672.79,63.6883962 675.94,63.5483962 C682.64,63.2350629 691.03,63.0550629 701.11,63.0083962 C701.680604,63.0051262 702.212893,63.2951542 702.519504,63.7763913 C702.826115,64.2576285 702.864067,64.8626144 702.62,65.3783962 C701.966667,66.7583962 701.063333,67.4617296 699.91,67.4883962 C691.31,67.7017296 683.05,67.6783962 675.13,67.4183962 Z" id="Path" fill="#F6F7F7"></path>
                <path d="M480.17,63.9183962 C480.796667,63.6517296 482.083333,63.5283962 484.03,63.5483962 C498.79,63.6817296 526.866667,63.5983962 568.26,63.2981479 C572.87,63.2683962 577.39,65.9583962 579.55,70.2983962 C580.043333,71.2917296 580.3,73.4517296 580.32,76.7783962 C580.473333,97.3583962 580.513333,115.105063 580.44,130.018396 C580.439995,130.277307 580.406385,130.536105 580.34,130.788396 C579.493333,134.06173 577.7,136.48173 574.96,138.048396 C573.5,138.88173 570.613333,139.325063 566.3,139.378396 C541.833333,139.69173 515.983333,139.605063 488.75,139.118396 C482.723333,139.01173 477.163333,137.358396 472.07,134.158396 C467.28,131.148396 462.76,121.718396 462.49,115.998396 C462.45,115.185063 462.453333,107.345063 462.5,92.4783962 C462.513333,86.8183962 462.81,83.0117296 463.39,81.0583962 C464.416667,77.6183962 466.186667,74.2317296 468.7,70.8983962 C471.76,66.8583962 474.34,66.3783962 480.17,63.9183962 Z M573.66,135.248396 C577.18,132.578396 578.41,131.138396 578.34,126.298396 C578.126667,112.398396 578.043333,95.5450629 578.09,75.7383962 C578.103333,72.2050629 576.39,69.5283962 572.95,67.7083962 C572.740614,67.5904374 572.502101,67.5316732 572.26,67.5383962 C546.973333,67.7183962 520.08,67.5317296 491.58,66.9783962 C483.82,66.8283962 478.76,66.3083962 473.46,71.3983962 C470.406667,74.3317296 468.69,78.0317296 468.31,82.4983962 C467.663333,89.9583962 467.496667,97.6650629 467.81,105.618396 C467.916667,108.338396 468.033333,110.065063 468.16,110.798396 C468.83,114.718396 467.7,118.338396 468.95,121.908396 C470.856667,127.34173 474.42,131.268396 479.64,133.688396 C481.666667,134.628396 485.156667,135.148396 490.11,135.248396 C518.896667,135.86173 542.526667,136.128396 561,136.048396 C564.773333,136.028396 567.886667,135.68173 570.34,135.008396 C570.498229,134.968742 570.658411,134.961926 570.81,134.988396 L572.95,135.408396 C573.19751,135.459607 573.456079,135.401338 573.66,135.248396 L573.66,135.248396 Z" id="Shape" fill="#010101"></path>
                <path d="M572.95,135.408396 L570.81,134.988396 C570.658411,134.961926 570.498229,134.968742 570.34,135.008396 C567.886667,135.68173 564.773333,136.028396 561,136.048396 C542.526667,136.128396 518.896667,135.86173 490.11,135.248396 C485.156667,135.148396 481.666667,134.628396 479.64,133.688396 C474.42,131.268396 470.856667,127.34173 468.95,121.908396 C467.7,118.338396 468.83,114.718396 468.16,110.798396 C468.033333,110.065063 467.916667,108.338396 467.81,105.618396 C467.496667,97.6650629 467.663333,89.9583962 468.31,82.4983962 C468.69,78.0317296 470.406667,74.3317296 473.46,71.3983962 C478.76,66.3083962 483.82,66.8283962 491.58,66.9783962 C520.08,67.5317296 546.973333,67.7183962 572.26,67.5383962 C572.502101,67.5316732 572.740614,67.5904374 572.95,67.7083962 C576.39,69.5283962 578.103333,72.2050629 578.09,75.7383962 C578.043333,95.5450629 578.126667,112.398396 578.34,126.298396 C578.41,131.138396 577.18,132.578396 573.66,135.248396 C573.456079,135.401338 573.19751,135.459607 572.95,135.408396 L572.95,135.408396 Z" id="Path" fill="#8F908F"></path>
                <path d="M674.58,67.1083962 C674.76,67.2083962 674.943333,67.3117296 675.13,67.4183962 L675.320041,88.1683962 C675.322666,88.4963417 675.194255,88.8117722 674.963296,89.0446092 C674.732337,89.2774463 674.417956,89.4083962 674.09,89.4083962 L658.46,89.4083962 C657.438273,89.4083962 656.61,88.580123 656.61,87.5583962 L656.61,69.2083962 C656.61,68.1723384 657.448518,67.3293592 658.49,67.3183962 L674.58,67.1083962 Z" id="Path" fill="#010101"></path>
                <path d="M1090.86,89.0383962 L1090.83,87.5483962 C1090.83126,87.4163882 1090.77047,87.2914517 1090.6651,87.2094961 C1090.55973,87.1275406 1090.42145,87.0976429 1090.29,87.1283962 C1086.90333,87.9683962 1083.6,88.0383962 1080.38,87.3383962 C1080.42,82.2050629 1080.48667,77.1317296 1080.58,72.1183962 C1080.61333,70.4983962 1080.8,69.4217296 1081.14,68.8883962 C1082.57,66.6683962 1086.77,67.3283962 1089.29,67.6083962 C1090.01856,67.691012 1090.58752,68.2725233 1090.65,68.9983962 C1091.21,75.5650629 1091.28,82.2450629 1090.86,89.0383962 Z" id="Path" fill="#F6F7F7"></path>
                <path d="M1118.06,88.1783962 C1113.31,88.4783962 1108.09,88.8083962 1103.63,86.9283962 L1103.85,69.6683962 C1103.85427,68.9917942 1104.3844,68.4353851 1105.06,68.3983962 C1109.56,68.1083962 1116.95,67.5883962 1117.87,73.8983962 C1118.24333,76.4583962 1118.30667,81.2183962 1118.06,88.1783962 Z" id="Path" fill="#F6F7F7"></path>
                <ellipse id="Oval" fill="#C6C6C6" transform="translate(337.310000, 79.458396) rotate(-92.400000) translate(-337.310000, -79.458396) " cx="337.31" cy="79.4583962" rx="9.63" ry="1"></ellipse>
                <path d="M1096.8,88.9683962 C1096.68595,88.9657747 1096.57761,88.9179372 1096.49884,88.8354143 C1096.42007,88.7528915 1096.37732,88.6424481 1096.38,88.5283962 L1096.45,84.5783962 C1096.60589,76.4741693 1097.20534,69.9114978 1097.79,69.9083962 L1098.19,69.9183962 C1098.47153,69.9155133 1098.71195,71.4644455 1098.85826,74.2237839 C1099.00458,76.9831222 1099.04478,80.7263483 1098.97,84.6283962 L1098.89,88.5783962 C1098.88457,88.8119644 1098.69363,88.9983962 1098.46,88.9983962 L1096.8,88.9683962 Z" id="Path" fill="#C6C6C6"></path>
                <path d="M310.03,108.048396 C306.42,108.098396 302.48,107.558396 299.31,107.578396 C287.13,107.638396 273.84,107.978396 262.33,107.818396 C229.04,107.358396 198.3,107.868396 164.24,107.268396 C158.173333,107.16173 140.293333,106.998396 110.6,106.778396 C106.51,106.748396 98.99,106.528396 93.2,106.268396 C90.1733333,106.128396 85.8233333,106.128396 80.15,106.268396 C70.9966667,106.488396 61.9466667,106.645063 53,106.738396 C51.0466667,106.75173 42.2133333,107.078396 26.5,107.718396 C17.6733333,108.078396 8.84,108.28173 0,108.328396 L0,83.4083962 C16.3533333,83.2617296 32.71,83.2717296 49.07,83.4383962 C50.3633333,83.4517296 53.6433333,83.6417296 58.91,84.0083962 C61.6833333,84.2017296 64.9666667,84.3017296 68.76,84.3083962 C164.026667,84.4817296 232.273333,84.5950629 273.5,84.6483962 C285.2,84.6617296 296.946667,84.6583962 308.74,84.6383962 C309.485584,84.6383962 310.09,85.2428118 310.09,85.9883962 L310.03,108.048396 Z" id="Path" fill="#EEEBE2"></path>
                <path d="M1408,83.4883962 L1408,105.278396 C1383.11333,105.165063 1358.22667,105.218396 1333.34,105.438396 C1304.22,105.698396 1275.97,107.488396 1244.99,106.398396 C1238.82333,106.178396 1231.82667,106.075063 1224,106.088396 C1192.43333,106.14173 1164.76667,106.43173 1141,106.958396 C1135.78667,107.07173 1130.34667,107.818396 1124.68,109.198396 L1124.87,86.5783962 C1124.87907,85.4569331 1125.76001,84.5365506 1126.88,84.4783962 C1133.13,84.1683962 1139.27,85.7183962 1145.06,85.5583962 C1147.77333,85.4850629 1166.98667,85.4950629 1202.7,85.5883962 C1206.48,85.5983962 1210.67,84.3283962 1214.84,84.3283962 C1264.06,84.3483962 1309.74,84.3650629 1351.88,84.3783962 C1356.16667,84.3783962 1365.40667,84.1283962 1379.6,83.6283962 C1389.06,83.2883962 1398.52667,83.2417296 1408,83.4883962 Z" id="Path" fill="#EEEBE2"></path>
                <path d="M1408,105.278396 L1408,115.518396 L1126.01,116.148396 C1125.44445,116.147141 1124.95342,115.763392 1124.82,115.218396 C1124.3,113.15173 1124.25333,111.145063 1124.68,109.198396 C1130.34667,107.818396 1135.78667,107.07173 1141,106.958396 C1164.76667,106.43173 1192.43333,106.14173 1224,106.088396 C1231.82667,106.075063 1238.82333,106.178396 1244.99,106.398396 C1275.97,107.488396 1304.22,105.698396 1333.34,105.438396 C1358.22667,105.218396 1383.11333,105.165063 1408,105.278396 Z" id="Path" fill="#C6C6C6"></path>
                <path d="M310.03,108.048396 L310.090049,114.198396 C310.090049,114.517487 309.96537,114.823924 309.736915,115.046716 C309.508459,115.269507 309.198918,115.389319 308.88,115.378396 C291.11,114.858396 274.24,116.158396 255.52,116.218396 C214.16,116.35173 167.1,116.385063 114.34,116.318396 C96.4066667,116.298396 77.35,116.145063 57.17,115.858396 C38.1166667,115.59173 19.06,115.345063 0,115.118396 L0,108.328396 C8.84,108.28173 17.6733333,108.078396 26.5,107.718396 C42.2133333,107.078396 51.0466667,106.75173 53,106.738396 C61.9466667,106.645063 70.9966667,106.488396 80.15,106.268396 C85.8233333,106.128396 90.1733333,106.128396 93.2,106.268396 C98.99,106.528396 106.51,106.748396 110.6,106.778396 C140.293333,106.998396 158.173333,107.16173 164.24,107.268396 C198.3,107.868396 229.04,107.358396 262.33,107.818396 C273.84,107.978396 287.13,107.638396 299.31,107.578396 C302.48,107.558396 306.42,108.098396 310.03,108.048396 Z" id="Path" fill="#C6C6C6"></path>
                <rect id="Rectangle" fill="#8F908F" transform="translate(338.200000, 119.758396) rotate(-0.800000) translate(-338.200000, -119.758396) " x="337.01" y="111.208396" width="2.38" height="17.1" rx="1.16"></rect>
                <path d="M675.47,130.438396 C675.616667,132.378396 674.713333,133.365063 672.76,133.398396 C668.253333,133.47173 663.75,133.505063 659.25,133.498396 C657.43,133.49173 656.55,132.65173 656.61,130.978396 C656.516667,125.205063 656.473333,119.458396 656.48,113.738396 C656.48,111.958396 657.37,111.075063 659.15,111.088396 C663.97,111.135063 668.72,111.118396 673.4,111.038396 C673.903018,111.030352 674.388473,111.222123 674.748851,111.571239 C675.109229,111.920355 675.314787,112.398003 675.32,112.898396 L675.47,130.438396 Z M670.3748,115.236296 C670.368197,114.965855 670.254432,114.709113 670.058531,114.522551 C669.86263,114.33599 669.600642,114.234891 669.3302,114.241496 L661.3726,114.435996 C661.102158,114.442599 660.845416,114.556365 660.658855,114.752265 C660.472294,114.948166 660.371195,115.210155 660.3778,115.480596 L660.3852,115.780496 C660.391803,116.050938 660.505568,116.30768 660.701469,116.494241 C660.89737,116.680803 661.159358,116.781901 661.4298,116.775296 L669.3874,116.580796 C669.657842,116.574193 669.914584,116.460428 670.101145,116.264527 C670.287706,116.068626 670.388805,115.806638 670.3822,115.536196 L670.3748,115.236296 Z" id="Shape" fill="#010101"></path>
                <rect id="Rectangle" fill="#8F908F" transform="translate(1097.760000, 120.748396) rotate(-0.100000) translate(-1097.760000, -120.748396) " x="1096.38" y="112.068396" width="2.76" height="17.36" rx="1.34"></rect>
                <path d="M1103.72,118.998396 C1104.04,119.678396 1104.46333,120.20173 1104.99,120.568396 C1105.20445,120.717795 1105.46368,120.794864 1105.73,120.788396 L1117.26,120.608396 C1117.62009,120.597952 1117.90956,120.308489 1117.92,119.948396 L1118.13,112.728396 C1118.19,115.40173 1118.20667,118.075063 1118.18,120.748396 C1118.14,124.34173 1118.08333,126.33173 1118.01,126.718396 C1116.89,133.038396 1109.58,134.378396 1104.64,133.308396 C1104.11662,133.199532 1103.74111,132.732234 1103.74,132.188396 L1103.72,118.998396 Z" id="Path" fill="#C6C6C6"></path>
                <rect id="Rectangle" fill="#C6C6C6" transform="translate(665.380000, 115.508396) rotate(-1.400000) translate(-665.380000, -115.508396) " x="660.38" y="114.338396" width="10" height="2.34" rx="1.02"></rect>
                <path d="M332.17,117.928396 C332.156667,121.44173 332.086667,124.955063 331.96,128.468396 C331.87,130.918396 329.39,130.848396 326.96,130.868396 C322.99,130.908396 318.57,130.298396 318,125.708396 C317.633333,122.74173 317.57,119.90173 317.81,117.188396 C322.483333,118.02173 327.27,118.268396 332.17,117.928396 Z" id="Path" fill="#C6C6C6"></path>
                <path d="M355.47,119.048396 C355.68,123.678396 356.66,131.068396 351.32,133.058396 C348.006667,134.298396 345.893333,133.188396 344.98,129.728396 C344.506667,127.955063 344.433333,124.355063 344.76,118.928396 L355.47,119.048396 Z" id="Path" fill="#C6C6C6"></path>
                <path d="M370.77,120.008396 L370.74,130.578396 C370.740166,132.631774 369.088577,134.305622 367.03,134.338396 L364.84,134.378396 C362.654944,134.41197 360.853698,132.677767 360.81,130.498396 L360.59,119.678396 L370.77,120.008396 Z" id="Path" fill="#C6C6C6"></path>
                <path d="M1074.91,120.638396 C1075.01,123.965063 1075.15333,127.66173 1075.34,131.728396 C1075.46,134.438396 1072.88,134.568396 1070.46,134.698396 C1067.63,134.848396 1065.58,132.868396 1065.75,130.218396 C1065.91667,127.538396 1065.96,124.865063 1065.88,122.198396 C1065.83333,121.885063 1065.83333,121.618396 1065.88,121.398396 C1065.96506,121.051654 1066.30623,120.834551 1066.65,120.908396 C1069.87,121.608396 1072.62333,121.518396 1074.91,120.638396 Z" id="Path" fill="#C6C6C6"></path>
                <path d="M1091.26,120.468396 L1091.17,132.078396 C1091.16262,132.762123 1090.69379,133.354332 1090.03,133.518396 C1088.17,133.978396 1084.46,134.578396 1082.81,133.618396 C1080.39,132.198396 1080.73,130.198396 1080.68,127.178396 C1080.64667,124.945063 1080.67667,122.68173 1080.77,120.388396 L1091.26,120.468396 Z" id="Path" fill="#C6C6C6"></path>
                <path d="M601.34,159.328396 C601.46,161.855063 601.453333,164.428396 601.32,167.048396 C601.22,169.098396 600.13,169.908396 598.21,169.928396 C593.383333,169.988396 583.48,170.155063 568.5,170.428396 C528.553333,171.14173 490.61,171.025063 454.67,170.078396 C446.64,169.868396 437.8,169.168396 429.51,168.678396 C420.22,168.128396 417.23,161.448396 412.24,154.378396 C407.673333,147.89173 401.443333,142.595063 393.55,138.488396 C390.48,136.898396 387.12,136.048396 383.86,135.308396 C382.871196,135.08514 382.166704,134.206598 382.16,133.188396 L382.09,120.968396 C386.55,121.395063 390.59,122.17173 394.21,123.298396 C401.81,125.65173 408.51,129.955063 414.31,136.208396 C415.27,137.248396 417.413333,140.345063 420.74,145.498396 C423.533333,149.825063 425.73,152.548396 427.33,153.668396 C430.37,155.795063 433.613333,157.128396 437.06,157.668396 C446.33,159.128396 457.3,158.698396 466.01,159.218396 C493.71,160.845063 523.373333,161.16173 555,160.168396 C574.766667,159.548396 588.6,159.19173 596.5,159.098396 C598.04,159.078396 599.653333,159.155063 601.34,159.328396 Z" id="Path" fill="#C6C6C6"></path>
                <path d="M1055.03,121.168396 L1055.03,133.428396 C1055.03,134.309828 1054.32589,135.027455 1053.45,135.038396 C1040.95667,135.225063 1030.82333,139.88173 1023.05,149.008396 C1022.03,150.20173 1018.56,154.90173 1012.64,163.108396 C1010.39,166.228396 1007.08,167.438396 1002.66,167.798396 C994.493333,168.458396 989.273333,168.79173 987,168.798396 C937.593333,169.065063 886.843333,168.928396 834.75,168.388396 C832.95,168.368396 832.06,167.395063 832.07967,165.468396 C832.146667,159.595063 832.196667,153.685063 832.23,147.738396 C839.45,147.805063 846.623333,147.798396 853.75,147.718396 C868.656667,147.55173 883.6,147.515063 898.58,147.608396 C909.26,147.678396 920.96,147.318396 932.27,146.858396 C947.31,146.248396 965.24,146.698396 982.25,146.938396 C984.263333,146.97173 988.933333,146.50173 996.26,145.528396 C999.873333,145.048396 1003.59333,143.915063 1007.42,142.128396 C1009.67333,141.068396 1012.58333,138.928396 1016.15,135.708396 C1021.75,130.658396 1027.41,126.558396 1034.43,124.448396 C1037.63,123.495063 1042.58,122.608396 1049.28,121.788396 C1049.60241,121.748977 1049.91348,121.636171 1050.19,121.458396 C1050.27667,121.405063 1050.35333,121.358396 1050.42,121.318396 C1050.65538,121.181132 1050.92886,121.111895 1051.21,121.117977 L1055.03,121.168396 Z" id="Path" fill="#C6C6C6"></path>
                <path d="M705.98,130.268396 L706.120193,144.458396 C706.132421,145.220275 705.545055,145.860241 704.78,145.918396 C696.19,146.578396 684.94,146.088396 667,145.838396 C661.133333,145.75173 647.66,145.835063 626.58,146.088396 C624.706667,146.108396 623.746667,145.07173 623.7,142.978396 C623.64,140.418396 623.66,137.98173 623.76,135.668396 C624.88,134.88173 625.776667,133.665063 626.45,132.018396 C626.567395,131.725217 626.773288,131.473958 627.04,131.298396 C628.14,130.598396 629.216667,130.248396 630.27,130.248396 C637.71,130.235063 645.113333,130.24173 652.48,130.268396 C653.06,130.268396 654.436667,130.505063 656.61,130.978396 C656.55,132.65173 657.43,133.49173 659.25,133.498396 C663.75,133.505063 668.253333,133.47173 672.76,133.398396 C674.713333,133.365063 675.616667,132.378396 675.47,130.438396 C685.53,129.798396 695.7,129.74173 705.98,130.268396 Z" id="Path" fill="#8F908F"></path>
                <path d="M1293.04,143.648396 L1275.71,143.778396 C1275.54984,143.778396 1275.42,143.908234 1275.42,144.068396 L1275.42,144.328396 C1275.41983,144.584112 1275.61978,144.792952 1275.87,144.798396 L1283.54,144.948396 L1143.23,144.608396 C1142.21721,144.609134 1141.28335,145.16026 1140.79,146.048396 C1135.55,155.488396 1124.44,160.208396 1113.95,160.928396 C1096.55,162.14173 1086.60667,162.778396 1084.12,162.838396 C1071.35333,163.17173 1062.06667,163.518396 1056.26,163.878396 C1044.46,164.608396 1041.5,173.618396 1035.7,180.948396 C1024.54,195.058396 1010.11,197.628396 992.31,198.298396 C969.18,199.178396 945.81,200.088396 919.75,199.828396 C910.936667,199.74173 887.363333,199.40173 849.03,198.808396 C833.54,198.568396 817.19,198.238396 809.47,182.188396 C809.03251,181.275732 808.264565,180.561365 807.32,180.188396 C796.66,175.975063 790.64,167.958396 789.26,156.138396 C789.926667,156.158396 790.206667,154.92173 790.1,152.428396 C790.61,161.578396 793.58,169.468396 801.02,175.218396 C801.68,175.725063 804.003333,176.90173 807.99,178.748396 C808.465953,178.973175 808.896257,179.281504 809.26,179.658396 C810.94,181.438396 812.18,184.258396 813.79,186.258396 C819.63,193.508396 827.38,196.258396 836.28,196.628396 C865.573333,197.855063 900.936667,198.31173 942.37,197.998396 C949.436667,197.95173 959.383333,197.638396 972.21,197.058396 C989.543333,196.278396 999.473333,195.805063 1002,195.638396 C1013.98,194.848396 1024.12,190.818396 1032.67,181.838396 C1036.16,178.158396 1040.04,170.958396 1043.25,167.688396 C1046.66333,164.22173 1050.67333,162.335063 1055.28,162.028396 C1058.7,161.80173 1066.34,161.655063 1078.2,161.588396 C1078.45982,161.58223 1078.71236,161.491037 1078.92,161.328396 C1078.98,161.275063 1079.04667,161.225063 1079.12,161.178396 C1079.21786,161.119518 1079.32945,161.091619 1079.44,161.098396 C1082.65333,161.378396 1094.05333,160.808396 1113.64,159.388396 C1122.91333,158.715063 1130.51667,155.448396 1136.45,149.588396 C1136.54973,149.495329 1136.64021,149.391448 1136.72,149.278396 L1140.14,144.308396 C1140.70228,143.483921 1141.6393,142.992925 1142.64,142.998351 C1174.43333,143.118396 1212.21333,143.128396 1255.98,143.028396 C1267.64,142.998351 1280.68,143.438396 1293.04,143.648396 Z" id="Path" fill="#C6C6C6"></path>
                <path d="M187.33,143.718396 C185.623333,144.465063 183.523333,144.82173 181.03,144.788396 L0.64,144.768396 C0.468791728,144.768396 0.329999954,144.629604 0.329999954,144.458396 L0.329999954,143.908396 C0.329999954,143.827068 0.362930858,143.749206 0.421373525,143.692649 C0.479816193,143.636091 0.558716927,143.605685 0.64,143.608396 C42.0933333,143.935063 67.7133333,144.08173 77.5,144.048396 C114.08,143.928396 150.69,143.818396 187.33,143.718396 Z" id="Path" fill="#8F908F"></path>
                <path d="M1283.54,144.948396 L1275.87,144.798396 C1275.61978,144.792952 1275.42,144.584112 1275.42,144.328396 L1275.42,144.068396 C1275.42,143.908234 1275.54984,143.778396 1275.71,143.778396 L1293.04,143.648396 L1407.22,143.898396 C1407.37027,143.898372 1407.51425,143.958743 1407.61956,144.065936 C1407.72487,144.173129 1407.78268,144.31815 1407.78009,144.468396 L1407.78009,144.498396 C1407.76921,144.816408 1407.50819,145.068579 1407.19,145.068396 L1283.54,144.948396 Z" id="Path" fill="#8F908F"></path>
            </g>
        </g>
    </g>
</svg>